<svg height="512pt" viewBox="0 0 512 512.1" width="512pt" xmlns="http://www.w3.org/2000/svg"><path d="m512.050781 256c0 25.101562-3.601562 49.398438-10.300781 72.300781-6.199219 21.097657-15 41.097657-26.101562 59.5-25.097657 41.699219-61.699219 75.699219-105.5 97.5-13.5 6.699219-27.699219 12.300781-42.5 16.597657-5.898438 1.703124-12 3.300781-18.097657 4.601562-17.199219 3.699219-35.101562 5.601562-53.5 5.601562-141.402343-.101562-255.9999998-114.703124-255.9999998-256.101562s114.5976568-256 255.9999998-256c100.398438 0 187.300781 57.800781 229.300781 142 .097657.300781.296876.601562.398438.800781 16.800781 34.097657 26.300781 72.597657 26.300781 113.199219zm0 0" fill="#afe4ff"/><path d="m370.148438 418.601562v66.699219c-19 9.5-39.296876 16.597657-60.597657 21.097657v-87.796876zm0 0" fill="#f26065"/><path d="m309.550781 443.699219h60.597657v7.699219h-60.597657zm0 0" fill="#e03a68"/><path d="m327.648438 418.601562v83.296876c-5.898438 1.703124-12 3.300781-18.097657 4.601562v-87.800781h18.097657zm0 0" fill="#e03a68"/><path d="m412.351562 403.199219c0 8.5-6.902343 15.402343-15.402343 15.402343h-87.398438v-15.402343c0-8.5 6.898438-15.398438 15.398438-15.398438h72c4.300781 0 8.101562 1.699219 10.902343 4.5 1.5 1.5 2.597657 3.199219 3.398438 5.199219.699219 1.699219 1.101562 3.699219 1.101562 5.699219zm0 0" fill="#ea9d72"/><path d="m411.25 397.5c-2.300781 5.699219-7.800781 9.699219-14.300781 9.699219h-72.800781v-4c0-8.5 6.902343-15.398438 15.402343-15.398438h57.398438c4.300781 0 8.101562 1.699219 10.902343 4.5 1.398438 1.5 2.597657 3.199219 3.398438 5.199219zm0 0" fill="#ea9d72"/><path d="m411.25 397.5c-2.300781 5.699219-7.800781 9.699219-14.300781 9.699219h-55.5c-9.800781 0-13.898438-13-5.597657-18.199219 1.199219-.699219 2.398438-1.199219 3.699219-1.199219h57.398438c4.300781 0 8.101562 1.699219 10.902343 4.5 1.398438 1.5 2.597657 3.199219 3.398438 5.199219zm0 0" fill="#f6b58a"/><path d="m303.851562 405h22.199219v-17.300781h-22.199219c-4.800781 0-8.601562 3.902343-8.601562 8.601562 0 4.898438 3.800781 8.699219 8.601562 8.699219zm0 0" fill="#ea9d72"/><path d="m172.449219 384.800781h-132.699219l11.601562-166.402343" fill="#30383d"/><path d="m293.851562 218.398438 11.597657 166.402343h-132.699219 6.699219" fill="#30383d"/><path d="m298.550781 449.601562v29.199219c-25.5 14.5-53.800781 24.699219-83.902343 29.699219-.097657 0-.296876 0-.398438.101562-45.601562-7.5-87.101562-27-121.199219-55.203124-14.601562-12-27.800781-25.597657-39.300781-40.597657 11.300781-26.902343 34.5-47.5 63.101562-55.101562 1.5-.398438 3-.800781 4.5-1.097657 4-.902343 8.199219-1.5 12.398438-1.800781 2.601562-.199219 5.199219-.300781 7.800781-.300781h62c6.898438 0 13.699219.699219 20.199219 2.101562.398438.097657.800781.199219 1.101562.199219 1.097657.300781 2.199219.5 3.296876.800781h.101562c10.699219 2.898438 20.699219 7.597657 29.5 13.699219 24.601562 17.300781 40.800781 45.898438 40.800781 78.300781zm0 0" fill="#e03a68"/><path d="m298.550781 449.601562v58.898438c-13.800781 2.300781-28 3.5-42.5 3.5-61.902343 0-118.699219-22-163-58.601562v-3.796876c0-44 29.898438-81 70.5-91.902343 1.5-.398438 3-.800781 4.5-1.097657 4-.902343 8.199219-1.5 12.398438-1.800781 2.601562-.199219 5.199219-.300781 7.800781-.300781h15.300781c6.898438 0 13.699219.699219 20.199219 2.101562.398438.097657.800781.199219 1.101562.199219 1.097657.300781 2.199219.5 3.296876.800781h.101562c10.699219 2.898438 20.699219 7.597657 29.5 13.699219 24.601562 17.300781 40.800781 45.898438 40.800781 78.300781zm0 0" fill="#f26065"/><path d="m228.351562 356.601562-.203124 1.097657-31.699219 147.300781c-18.097657-4.300781-35.5-10.601562-51.898438-18.5l-27.699219-128.800781-.203124-1.097657zm0 0" fill="#f2f2f2"/><path d="m172.449219 393.398438-42.800781 23.800781-13.097657-60.597657 26.597657-15.703124" fill="#d8d8d8"/><path d="m172.449219 393.398438 42.800781 23.800781 13.101562-60.597657-26.703124-15.703124" fill="#d8d8d8"/><path d="m206.351562 317.800781v41.699219c0 15.300781-10.101562 28.101562-23.902343 32.398438-3.199219 1-6.5 1.5-10 1.5-18.699219 0-33.898438-15.199219-33.898438-33.898438v-41.699219zm0 0" fill="#ea9d72"/><path d="m206.351562 356.800781v2.597657c0 15.300781-10.101562 28.101562-23.902343 32.402343-12.5-3.800781-21.898438-14.699219-23.597657-28 2.296876.097657 4.5.199219 6.796876.199219 6.402343 0 12.703124-.5 18.800781-1.5 7.699219-1.101562 15-3.101562 21.902343-5.699219zm0 0" fill="#f6b58a"/><path d="m77.851562 249.5c0 15.699219-11.5 28.699219-26.5 31.199219-1.601562.300781-3.300781.402343-5.101562.402343-17.398438 0-31.601562-14.101562-31.601562-31.601562s14.203124-31.5 31.601562-31.5c1.699219 0 3.398438.101562 5.101562.398438 15 2.402343 26.5 15.402343 26.5 31.101562zm0 0" fill="#f6b58a"/><path d="m77.851562 249.5c0 15.699219-11.5 28.699219-26.5 31.199219-2.703124-9.898438-4.203124-20.398438-4.203124-31.199219s1.5-21.199219 4.203124-31.199219c15 2.5 26.5 15.5 26.5 31.199219zm0 0" fill="#ea9d72"/><path d="m57.550781 249.5c0 6.242188-5.058593 11.300781-11.300781 11.300781s-11.300781-5.058593-11.300781-11.300781 5.058593-11.300781 11.300781-11.300781 11.300781 5.058593 11.300781 11.300781zm0 0" fill="#ea9d72"/><path d="m267.050781 249.5c0 15.699219 11.5 28.699219 26.5 31.199219 1.597657.300781 3.300781.402343 5.097657.402343 17.402343 0 31.601562-14.101562 31.601562-31.601562s-14.101562-31.5-31.601562-31.5c-1.699219 0-3.398438.101562-5.097657.398438-15 2.402343-26.5 15.402343-26.5 31.101562zm0 0" fill="#f6b58a"/><path d="m267.050781 249.5c0 15.699219 11.5 28.699219 26.5 31.199219 2.699219-9.898438 4.199219-20.398438 4.199219-31.199219s-1.5-21.199219-4.199219-31.199219c-15 2.5-26.5 15.5-26.5 31.199219zm0 0" fill="#ea9d72"/><path d="m309.949219 249.5c0 6.242188-5.058594 11.300781-11.300781 11.300781-6.238282 0-11.296876-5.058593-11.296876-11.300781s5.058594-11.300781 11.296876-11.300781c6.242187 0 11.300781 5.058593 11.300781 11.300781zm0 0" fill="#ea9d72"/><path d="m289.851562 188v44.699219c0 58.402343-42.703124 106.902343-98.601562 115.902343-.199219 0-.398438.097657-.601562.097657-5.898438 1-12 1.402343-18.296876 1.402343-64.800781.097657-117.300781-52.5-117.300781-117.300781v-44.800781c0-13.699219 2.300781-26.800781 6.597657-39 16.101562-45.699219 59.601562-78.5 110.800781-78.5 6.199219 0 12.300781.5 18.300781 1.398438 56.199219 8.902343 99.101562 57.5 99.101562 116.101562zm0 0" fill="#ea9d72"/><path d="m289.851562 188v44.699219c0 58.402343-42.703124 106.902343-98.601562 115.902343-.199219 0-.398438.097657-.601562.097657-56.199219-8.800781-99.097657-57.398438-99.097657-116v-44.699219c0-58.601562 43-107.199219 99.199219-116 56.199219 8.800781 99.101562 57.398438 99.101562 116zm0 0" fill="#f6b58a"/><g fill="#ea9d72"><path d="m252.351562 263.601562c0 8.0625-6.539062 14.597657-14.601562 14.597657s-14.601562-6.535157-14.601562-14.597657c0-8.066406 6.539062-14.601562 14.601562-14.601562s14.601562 6.535156 14.601562 14.601562zm0 0"/><path d="m121.75 263.601562c0 8.0625-6.535156 14.597657-14.601562 14.597657-8.0625 0-14.597657-6.535157-14.597657-14.597657 0-8.066406 6.535157-14.601562 14.597657-14.601562 8.066406 0 14.601562 6.535156 14.601562 14.601562zm0 0"/><path d="m235.550781 222.800781c0-10.800781-8.699219-19.5-19.5-19.5s-19.5 8.699219-19.5 19.5"/><path d="m148.449219 222.800781c0-10.800781-8.699219-19.5-19.5-19.5s-19.5 8.699219-19.5 19.5"/></g><path d="m142.25 231.101562c0 7.34375-5.953125 13.296876-13.300781 13.296876-7.34375 0-13.300781-5.953126-13.300781-13.296876 0-7.347656 5.957031-13.300781 13.300781-13.300781 7.347656 0 13.300781 5.953125 13.300781 13.300781zm0 0" fill="#444f56"/><path d="m229.351562 231.101562c0 7.34375-5.957031 13.296876-13.300781 13.296876-7.347656 0-13.300781-5.953126-13.300781-13.296876 0-7.347656 5.953125-13.300781 13.300781-13.300781 7.34375 0 13.300781 5.953125 13.300781 13.300781zm0 0" fill="#444f56"/><path d="m185.75 264.699219h-26.601562c-3.199219 0-5.699219-2.597657-5.699219-5.699219 0-3.199219 2.601562-5.699219 5.699219-5.699219h26.601562c3.199219 0 5.699219 2.597657 5.699219 5.699219.101562 3.101562-2.5 5.699219-5.699219 5.699219zm0 0" fill="#ea9d72"/><path d="m172.449219 301c-9.800781 0-19.699219-2.5-28.597657-7.398438-2.5-1.402343-3.5-4.601562-2.101562-7.101562s4.601562-3.5 7.101562-2.101562c14.796876 8.101562 32.398438 8.101562 47.199219 0 2.5-1.398438 5.699219-.5 7.097657 2.101562 1.402343 2.5.5 5.699219-2.097657 7.101562-8.902343 5-18.800781 7.398438-28.601562 7.398438zm0 0" fill="#ea9d72"/><path d="m139.449219 228.800781c0 3.148438-2.550781 5.699219-5.699219 5.699219s-5.699219-2.550781-5.699219-5.699219c0-3.148437 2.550781-5.699219 5.699219-5.699219s5.699219 2.550782 5.699219 5.699219zm0 0" fill="#fff"/><path d="m227.25 228.800781c0 3.148438-2.550781 5.699219-5.699219 5.699219-3.148437 0-5.699219-2.550781-5.699219-5.699219 0-3.148437 2.550782-5.699219 5.699219-5.699219 3.148438 0 5.699219 2.550782 5.699219 5.699219zm0 0" fill="#fff"/><path d="m293.851562 139v60.898438h-242.800781v-35l1-38.699219 17-26.699219 53.300781-39.699219 27.898438-4.199219 33.699219-5.203124 69 25.101562zm0 0" fill="#444f56"/><path d="m119.25 199.898438h-50.199219v27.101562h-18v-62.101562l1-38.699219 17-26.699219 53.300781-39.699219 28-4.300781c-24.101562 24.699219-34.5 89-31.101562 144.398438zm0 0" fill="#30383d"/><path d="m295.050781 148.5c0 5.601562-.402343 11.101562-1.199219 16.398438-8.300781-57.097657-59.5-101.097657-121.402343-101.097657-6.699219 0-13.300781.5-19.699219 1.5-4.5.699219-8.800781 1.597657-13.101562 2.699219-10.796876 2.898438-21 7.101562-30.296876 12.5-31 17.898438-53.101562 48.5-58.300781 84.300781-.800781-5.300781-1.199219-10.800781-1.199219-16.402343 0-42.699219 23.796876-80.199219 59.5-100.699219 9.398438-5.398438 19.597657-9.597657 30.296876-12.5 4.300781-1.097657 8.703124-2.097657 13.101562-2.699219 6.398438-1 13-1.5 19.699219-1.5 67.699219.101562 122.601562 52.699219 122.601562 117.5zm0 0" fill="#f26065"/><path d="m275.851562 199.898438h18v27.203124h-18zm0 0" fill="#444f56"/><path d="m258.550781 199.898438s1.699219-46-12.902343-70l-2.097657 79.402343" fill="#f6b58a"/><path d="m139.648438 35.398438v32.703124c-10.796876 2.898438-21 7.097657-30.296876 12.5-31 17.898438-53.101562 48.5-58.300781 84.296876-.800781-5.296876-1.199219-10.796876-1.199219-16.398438 0-42.699219 23.796876-80.199219 59.5-100.699219 9.398438-5.402343 19.5-9.601562 30.296876-12.402343zm0 0" fill="#e03a68"/><path d="m501.75 328.300781c-6.199219 21.097657-15 41.097657-26.101562 59.5h-201.5l21.101562-245.800781h190.398438l.101562.800781zm0 0" fill="#ffe662"/><path d="m443.75 184.300781h-20v-56.402343c0-19.5-15.898438-35.5-35.5-35.5s-35.5 15.902343-35.5 35.5v56.402343h-20v-56.402343c0-30.597657 24.898438-55.5 55.5-55.5s55.5 24.902343 55.5 55.5zm0 0" fill="#6b2c89"/><path d="m390.449219 219.699219 14.699219 29.699219 32.902343 4.800781-23.800781 23.199219 5.601562 32.703124-29.402343-15.5-29.398438 15.5 5.699219-32.703124-23.800781-23.199219 32.800781-4.800781zm0 0" fill="#f26065"/></svg>