<svg xmlns="http://www.w3.org/2000/svg" xmlns:xlink="http://www.w3.org/1999/xlink" version="1.1" x="0px" y="0px" viewBox="0 0 309.463 344.64875" style="enable-background:new 0 0 309.463 275.719;" xml:space="preserve"><g><path d="M169.19,46.786c0-5.104-18.361-15.92-43.272-19.271c-0.238-5.114-6.846-9.217-14.979-9.217   c-8.133,0-14.738,4.102-14.977,9.217c-24.91,3.352-43.273,14.168-43.273,19.271c0,4.454,13.998,8.287,34.123,10.022   c2.01-11.502,12.061-20.273,24.127-20.273c12.068,0,22.119,8.771,24.129,20.272C155.191,55.073,169.19,51.239,169.19,46.786z"/><path d="M125.873,80.439h38.738c0.055,1.025,0.084,2.003,0.084,2.918c0.008,5.509-0.971,8.844-1.936,10.579   c-1.008,1.731-1.744,2.212-3.035,2.747c-0.865,0.319-2.045,0.527-3.498,0.525c-3.5,0.039-8.367-1.336-12.285-2.99   c-3.939-1.627-6.99-3.416-7.482-3.716c-0.059-0.036-0.059-0.036-0.059-0.036l-0.002,0.002c-1.568-0.972-3.342-1.327-5.045-1.147   c-0.359-0.051-0.725-0.087-1.098-0.087H91.621c-0.371,0-0.734,0.035-1.094,0.086c-1.703-0.18-3.477,0.176-5.045,1.146   c0,0,0,0-0.061,0.037c-0.064,0.04-0.178,0.105-0.33,0.194c-0.305,0.179-0.775,0.447-1.379,0.774   c-1.213,0.654-2.963,1.545-4.998,2.42c-4.043,1.779-9.322,3.365-13.061,3.316c-1.449,0.002-2.629-0.205-3.492-0.525   c-0.875-0.333-1.465-0.713-2.088-1.385c-1.18-1.256-2.881-4.535-2.883-11.941c0-0.914,0.027-1.893,0.082-2.918h38.734   c-2.172-1.675-4.053-3.703-5.561-6H56.762c-1.145-2.586-3.627-4.484-6.645-4.741c-3.492-0.296-6.643,1.704-7.984,4.741H22.125v-27   h-6v2.875H0v2.875h16.125v7.4H0v2.875h16.125v7.399H0v2.875h16.125v7.399H0v2.875h16.125v7.4H0v2.875h16.125v7.4H0v2.875h16.125   v2.875h6v-27h19.133c-0.043,0.996-0.066,1.972-0.066,2.918c0.008,7.281,1.209,13.29,3.887,18.238   c2.635,4.951,7.006,8.494,11.572,10.109c3.037,1.11,6.098,1.502,9.004,1.504c6.943-0.045,13.232-2.103,18.238-4.148v154.295   c0,6.83,5.537,12.363,12.365,12.363c6.826,0,12.363-5.533,12.363-12.363v-90.271h4.635v90.271c0,6.83,5.537,12.363,12.365,12.363   c6.826,0,12.363-5.533,12.363-12.363V109.058c5.006,2.048,11.301,4.106,18.242,4.151c2.908-0.002,5.969-0.395,9.008-1.504   c3.031-1.101,6.014-2.984,8.418-5.646c4.871-5.404,7.047-13.054,7.043-22.701c0-0.946-0.023-1.922-0.066-2.918h39.994v-6H179.75   c-1.344-3.041-4.504-5.041-8.002-4.738c-3.012,0.26-5.484,2.157-6.627,4.738h-33.688C129.926,76.736,128.043,78.765,125.873,80.439   z"/><circle cx="110.94" cy="61.035" r="22.5"/><path d="M225.109,42.177c17.406,3.421,18.1,6.679,3.314,16.418c17.291-3.812,19.105-1.144,9.039,13.406   c14.549-10.068,17.217-8.253,13.406,9.039c9.738-14.785,12.996-14.093,16.418,3.314c3.42-17.407,6.678-18.1,16.418-3.314   c-3.813-17.292-1.145-19.107,13.406-9.039c-10.068-14.55-8.254-17.218,9.037-13.406c-14.785-9.739-14.092-12.997,3.314-16.418   c-17.406-3.42-18.1-6.678-3.314-16.417c-17.291,3.813-19.105,1.144-9.037-13.406c-14.551,10.067-17.219,8.253-13.406-9.039   C273.965,18.1,270.707,17.407,267.287,0c-3.422,17.407-6.68,18.1-16.418,3.314c3.811,17.292,1.143,19.107-13.406,9.039   c10.066,14.55,8.252,17.219-9.039,13.406C243.209,35.499,242.516,38.757,225.109,42.177z M267.287,28.164   c7.738,0,14.012,6.274,14.012,14.013c0,7.74-6.273,14.014-14.012,14.014c-7.74,0-14.014-6.273-14.014-14.014   C253.273,34.438,259.547,28.164,267.287,28.164z"/><path d="M257.921,192.952c-1.661,1.662-4.866,1.153-7.773-1.755c-2.908-2.908-4.42-7.115-2.759-8.777   c1.661-1.661,5.869-0.149,8.776,2.759C259.073,188.087,259.583,191.291,257.921,192.952z"/><path d="M257.921,178.607c-1.661,1.661-4.866,1.151-7.773-1.757c-2.908-2.907-4.42-7.114-2.759-8.775   c1.661-1.662,5.869-0.149,8.776,2.758C259.073,173.741,259.583,176.945,257.921,178.607z"/><path d="M257.921,164.262c-1.661,1.661-4.866,1.152-7.773-1.756c-2.908-2.908-4.42-7.115-2.759-8.776   c1.661-1.662,5.869-0.149,8.776,2.759C259.073,159.395,259.583,162.6,257.921,164.262z"/><path d="M257.921,149.916c-1.661,1.662-4.866,1.152-7.773-1.756c-2.908-2.907-4.42-7.114-2.759-8.776   c1.661-1.661,5.869-0.149,8.776,2.758C259.073,145.05,259.583,148.254,257.921,149.916z"/><path d="M261.752,192.952c1.661,1.662,4.866,1.153,7.773-1.755c2.908-2.908,4.421-7.115,2.759-8.777   c-1.661-1.661-5.869-0.149-8.776,2.759S260.091,191.291,261.752,192.952z"/><path d="M261.752,178.607c1.661,1.661,4.866,1.151,7.773-1.757c2.908-2.907,4.421-7.114,2.759-8.775   c-1.661-1.662-5.869-0.149-8.776,2.758C260.601,173.741,260.091,176.945,261.752,178.607z"/><path d="M261.752,164.262c1.661,1.661,4.866,1.152,7.773-1.756c2.908-2.908,4.421-7.115,2.759-8.776   c-1.661-1.662-5.869-0.149-8.776,2.759C260.601,159.395,260.091,162.6,261.752,164.262z"/><path d="M261.752,149.916c1.661,1.662,4.866,1.152,7.773-1.756c2.908-2.907,4.421-7.114,2.759-8.776   c-1.661-1.661-5.869-0.149-8.776,2.758C260.601,145.05,260.091,148.254,261.752,149.916z"/><path d="M264.314,133.311c0,4.496-2.005,6.513-4.478,6.513c-2.473,0-4.478-2.017-4.478-6.513s2.005-9.77,4.478-9.77   C262.309,123.542,264.314,128.815,264.314,133.311z"/><path d="M222.946,192.952c-1.661,1.662-4.866,1.153-7.773-1.755c-2.908-2.908-4.42-7.115-2.759-8.777   c1.661-1.661,5.869-0.149,8.776,2.759C224.099,188.087,224.608,191.291,222.946,192.952z"/><path d="M222.946,178.607c-1.661,1.661-4.866,1.151-7.773-1.757c-2.908-2.907-4.42-7.114-2.759-8.775   c1.661-1.662,5.869-0.149,8.776,2.758C224.099,173.741,224.608,176.945,222.946,178.607z"/><path d="M222.946,164.262c-1.661,1.661-4.866,1.152-7.773-1.756c-2.908-2.908-4.42-7.115-2.759-8.776   c1.661-1.662,5.869-0.149,8.776,2.759C224.099,159.395,224.608,162.6,222.946,164.262z"/><path d="M222.946,149.916c-1.661,1.662-4.866,1.152-7.773-1.756c-2.908-2.907-4.42-7.114-2.759-8.776   c1.661-1.661,5.869-0.149,8.776,2.758C224.099,145.05,224.608,148.254,222.946,149.916z"/><path d="M226.777,192.952c1.661,1.662,4.866,1.153,7.773-1.755c2.908-2.908,4.421-7.115,2.759-8.777   c-1.661-1.661-5.869-0.149-8.776,2.759C225.626,188.087,225.116,191.291,226.777,192.952z"/><path d="M226.777,178.607c1.661,1.661,4.866,1.151,7.773-1.757c2.908-2.907,4.421-7.114,2.759-8.775   c-1.661-1.662-5.869-0.149-8.776,2.758C225.626,173.741,225.116,176.945,226.777,178.607z"/><path d="M226.777,164.262c1.661,1.661,4.866,1.152,7.773-1.756c2.908-2.908,4.421-7.115,2.759-8.776   c-1.661-1.662-5.869-0.149-8.776,2.759C225.626,159.395,225.116,162.6,226.777,164.262z"/><path d="M226.777,149.916c1.661,1.662,4.866,1.152,7.773-1.756c2.908-2.907,4.421-7.114,2.759-8.776   c-1.661-1.661-5.869-0.149-8.776,2.758C225.626,145.05,225.116,148.254,226.777,149.916z"/><path d="M229.339,133.311c0,4.496-2.005,6.513-4.478,6.513c-2.473,0-4.478-2.017-4.478-6.513s2.005-9.77,4.478-9.77   C227.334,123.542,229.339,128.815,229.339,133.311z"/><path d="M187.972,192.952c-1.661,1.662-4.866,1.153-7.773-1.755c-2.908-2.908-4.42-7.115-2.759-8.777   c1.661-1.661,5.869-0.149,8.776,2.759C189.124,188.087,189.634,191.291,187.972,192.952z"/><path d="M187.972,178.607c-1.661,1.661-4.866,1.151-7.773-1.757c-2.908-2.907-4.42-7.114-2.759-8.775   c1.661-1.662,5.869-0.149,8.776,2.758C189.124,173.741,189.634,176.945,187.972,178.607z"/><path d="M187.972,164.262c-1.661,1.661-4.866,1.152-7.773-1.756c-2.908-2.908-4.42-7.115-2.759-8.776   c1.661-1.662,5.869-0.149,8.776,2.759C189.124,159.395,189.634,162.6,187.972,164.262z"/><path d="M187.972,149.916c-1.661,1.662-4.866,1.152-7.773-1.756c-2.908-2.907-4.42-7.114-2.759-8.776   c1.661-1.661,5.869-0.149,8.776,2.758C189.124,145.05,189.634,148.254,187.972,149.916z"/><path d="M191.803,192.952c1.661,1.662,4.866,1.153,7.773-1.755c2.908-2.908,4.421-7.115,2.759-8.777   c-1.661-1.661-5.869-0.149-8.776,2.759S190.142,191.291,191.803,192.952z"/><path d="M191.803,178.607c1.661,1.661,4.866,1.151,7.773-1.757c2.908-2.907,4.421-7.114,2.759-8.775   c-1.661-1.662-5.869-0.149-8.776,2.758C190.651,173.741,190.142,176.945,191.803,178.607z"/><path d="M191.803,164.262c1.661,1.661,4.866,1.152,7.773-1.756c2.908-2.908,4.421-7.115,2.759-8.776   c-1.661-1.662-5.869-0.149-8.776,2.759C190.651,159.395,190.142,162.6,191.803,164.262z"/><path d="M191.803,149.916c1.661,1.662,4.866,1.152,7.773-1.756c2.908-2.907,4.421-7.114,2.759-8.776   c-1.661-1.661-5.869-0.149-8.776,2.758C190.651,145.05,190.142,148.254,191.803,149.916z"/><path d="M194.364,133.311c0,4.496-2.005,6.513-4.478,6.513c-2.473,0-4.477-2.017-4.477-6.513s2.005-9.77,4.477-9.77   C192.359,123.542,194.364,128.815,194.364,133.311z"/><path d="M38.354,192.952c-1.661,1.662-4.866,1.153-7.773-1.755c-2.908-2.908-4.42-7.115-2.759-8.777   c1.661-1.661,5.869-0.149,8.776,2.759C39.507,188.087,40.017,191.291,38.354,192.952z"/><path d="M38.354,178.607c-1.661,1.661-4.866,1.151-7.773-1.757c-2.908-2.907-4.42-7.114-2.759-8.775   c1.661-1.662,5.869-0.149,8.776,2.758C39.507,173.741,40.017,176.945,38.354,178.607z"/><path d="M38.354,164.262c-1.661,1.661-4.866,1.152-7.773-1.756c-2.908-2.908-4.42-7.115-2.759-8.776   c1.661-1.662,5.869-0.149,8.776,2.759C39.507,159.395,40.017,162.6,38.354,164.262z"/><path d="M38.354,149.916c-1.661,1.662-4.866,1.152-7.773-1.756c-2.908-2.907-4.42-7.114-2.759-8.776   c1.661-1.661,5.869-0.149,8.776,2.758C39.507,145.05,40.017,148.254,38.354,149.916z"/><path d="M42.186,192.952c1.661,1.662,4.866,1.153,7.773-1.755c2.908-2.908,4.421-7.115,2.759-8.777   c-1.661-1.661-5.869-0.149-8.776,2.759C41.034,188.087,40.524,191.291,42.186,192.952z"/><path d="M42.186,178.607c1.661,1.661,4.866,1.151,7.773-1.757c2.908-2.907,4.421-7.114,2.759-8.775   c-1.661-1.662-5.869-0.149-8.776,2.758C41.034,173.741,40.524,176.945,42.186,178.607z"/><path d="M42.186,164.262c1.661,1.661,4.866,1.152,7.773-1.756c2.908-2.908,4.421-7.115,2.759-8.776   c-1.661-1.662-5.869-0.149-8.776,2.759C41.034,159.395,40.524,162.6,42.186,164.262z"/><path d="M42.186,149.916c1.661,1.662,4.866,1.152,7.773-1.756c2.908-2.907,4.421-7.114,2.759-8.776   c-1.661-1.661-5.869-0.149-8.776,2.758C41.034,145.05,40.524,148.254,42.186,149.916z"/><path d="M44.747,133.311c0,4.496-2.005,6.513-4.478,6.513c-2.473,0-4.478-2.017-4.478-6.513s2.005-9.77,4.478-9.77   C42.742,123.542,44.747,128.815,44.747,133.311z"/><polygon points="261.668,207.413 261.668,197.285 258.005,197.285 258.005,207.413 226.693,207.413 226.693,197.285    223.03,197.285 223.03,207.413 191.719,207.413 191.719,197.285 188.056,197.285 188.056,207.413 152.486,207.413 152.486,215.413    298.892,215.413 298.892,207.413  "/><polygon points="42.102,197.285 38.438,197.285 38.438,207.413 10.771,207.413 10.771,215.413 69.771,215.413 69.771,207.413    42.102,207.413  "/></g></svg>