<svg width="128" height="128" viewBox="0 0 128 128" fill="none" xmlns="http://www.w3.org/2000/svg">
<path d="M73.4773 95.5866H54.522V116.816H73.4773V95.5866Z" fill="#FDCC9B"/>
<path d="M54.5229 98.0867C54.5229 98.0867 62.4965 103.164 73.4783 101.988V95.586H54.5229V98.0867Z" fill="#FCBC85"/>
<path d="M27.1895 73.2194C32.2976 73.2194 36.4386 68.495 36.4386 62.6671C36.4386 56.8392 32.2976 52.1148 27.1895 52.1148C22.0814 52.1148 17.9404 56.8392 17.9404 62.6671C17.9404 68.495 22.0814 73.2194 27.1895 73.2194Z" fill="#FCBC85"/>
<path d="M100.811 73.2194C105.919 73.2194 110.06 68.495 110.06 62.6671C110.06 56.8392 105.919 52.1148 100.811 52.1148C95.7025 52.1148 91.5615 56.8392 91.5615 62.6671C91.5615 68.495 95.7025 73.2194 100.811 73.2194Z" fill="#FCBC85"/>
<path d="M100.773 42.5117C100.773 26.9689 89.3999 15.595 64 15.595C38.6 15.595 27.2268 26.9682 27.2268 42.5117C27.2268 58.0551 24.5732 98.9985 64 98.9985C103.427 98.9985 100.773 58.0551 100.773 42.5117Z" fill="#FDCC9B"/>
<path d="M46.0891 64.4997C48.2875 64.4997 50.0697 62.5478 50.0697 60.1399C50.0697 57.7321 48.2875 55.7801 46.0891 55.7801C43.8906 55.7801 42.1084 57.7321 42.1084 60.1399C42.1084 62.5478 43.8906 64.4997 46.0891 64.4997Z" fill="#3B2519"/>
<path d="M44.3535 59.4054C45.0109 59.4054 45.5439 58.8725 45.5439 58.215C45.5439 57.5576 45.0109 57.0247 44.3535 57.0247C43.696 57.0247 43.1631 57.5576 43.1631 58.215C43.1631 58.8725 43.696 59.4054 44.3535 59.4054Z" fill="white"/>
<path d="M39.7209 49.3355C41.6032 50.277 44.6257 46.137 51.5442 49.7385C52.8056 50.395 53.5581 44.1232 46.1423 44.1232C39.7209 44.1232 38.5834 48.7674 39.7209 49.3355Z" fill="#51362A"/>
<path d="M82.403 64.4997C84.6015 64.4997 86.3837 62.5478 86.3837 60.1399C86.3837 57.7321 84.6015 55.7801 82.403 55.7801C80.2046 55.7801 78.4224 57.7321 78.4224 60.1399C78.4224 62.5478 80.2046 64.4997 82.403 64.4997Z" fill="#3B2519"/>
<path d="M80.6674 59.4054C81.3249 59.4054 81.8578 58.8725 81.8578 58.215C81.8578 57.5576 81.3249 57.0247 80.6674 57.0247C80.01 57.0247 79.4771 57.5576 79.4771 58.215C79.4771 58.8725 80.01 59.4054 80.6674 59.4054Z" fill="white"/>
<path d="M88.2795 49.3355C86.3972 50.277 83.3748 46.137 76.4562 49.7385C75.1949 50.395 74.4424 44.1232 81.8588 44.1232C88.2795 44.1232 89.4164 48.7674 88.2795 49.3355Z" fill="#51362A"/>
<path d="M64 75.4751C60.0664 75.4751 57.6973 72.5371 57.6973 73.9584C57.6973 75.3803 58.8348 78.0816 64 78.0816C69.1653 78.0816 70.3028 75.3803 70.3028 73.9584C70.3028 72.5365 67.933 75.4751 64 75.4751Z" fill="#FCBC85"/>
<path d="M64.0001 88.5462C62.6394 88.5462 61.8198 87.5299 61.8198 88.0219C61.8198 88.5139 62.2132 89.4477 64.0001 89.4477C65.7869 89.4477 66.1796 88.5139 66.1796 88.0219C66.1796 87.5299 65.36 88.5462 64.0001 88.5462Z" fill="#FCBC85"/>
<path d="M63.9999 84.9241C57.7655 84.9241 54.0093 82.3853 54.0093 83.0289C54.0093 83.6724 55.8123 86.2041 63.9999 86.2041C72.1876 86.2041 73.9906 83.6724 73.9906 83.0289C73.9899 82.3853 70.2343 84.9241 63.9999 84.9241Z" fill="#F7945E"/>
<path d="M64.0001 104.116V128H17.9404C17.9404 118.332 42.2016 104.116 64.0001 104.116Z" fill="#F7941E"/>
<path d="M64 104.116V128H110.06C110.06 118.332 85.7985 104.116 64 104.116Z" fill="#F7941E"/>
<path d="M64.0003 104.116C59.3638 104.116 54.6164 104.764 50.0142 105.87C50.0451 105.911 55.1188 112.457 64.0003 112.457C72.2247 112.457 77.6924 106.851 78.4849 105.989C73.7272 104.808 68.8044 104.116 64.0003 104.116Z" fill="#F36C21"/>
<path d="M54.522 104.943C54.522 104.943 57.2942 108.381 63.9993 108.381C70.7045 108.381 73.4773 104.943 73.4773 104.943C73.4773 104.943 63.6447 101.363 54.522 104.943Z" fill="#FDCC9B"/>
<path d="M94.2334 12.2788C94.2334 12.2788 80.5858 -5.06503 52.2201 1.47438C23.8552 8.01315 21.7297 25.0733 22.5829 41.6711C23.436 58.2695 25.7104 68.0067 28.4007 66.8034C31.091 65.5995 29.691 54.6435 29.9754 52.115C30.2598 49.5866 32.8186 38.1521 50.0702 39.8584C67.3212 41.5647 81.8587 35.309 81.8587 35.309C81.8587 35.309 87.7107 42.706 91.5617 44.1234C99.2574 46.955 96.7334 65.8355 99.7487 65.8355C102.764 65.8355 117.549 22.2301 94.2334 12.2788Z" fill="#51362A"/>
</svg>
