<svg width="128" height="128" viewBox="0 0 128 128" fill="none" xmlns="http://www.w3.org/2000/svg">
<g clip-path="url(#clip0)">
<path d="M127.905 63.9521C127.905 99.2725 99.2725 127.905 63.9521 127.905C28.6328 127.905 0 99.2725 0 63.9521C0 28.6328 28.6328 0 63.9521 0C99.2725 0 127.905 28.6328 127.905 63.9521V63.9521Z" fill="#F26065"/>
<path d="M67.1162 87.6797L93.2803 117.437V85.6357" fill="#FFE662"/>
<path d="M117.279 96.7549L6.90234 85.3467L6.42773 28.4277L128 10.4717L117.279 96.7549Z" fill="#FFE662"/>
<path d="M32.8105 39.5508C32.8203 38.8535 33.5205 38.4385 34.2187 38.3721L38.5166 37.9639C40.6679 37.7598 42.8359 38.3701 42.7558 41.5811C42.7099 43.4024 41.9824 44.6377 40.8222 45.2256C42.1318 45.6524 43.0273 46.4209 42.9716 48.6475L42.9599 49.1133C42.8711 52.6055 40.9433 53.917 38.5507 53.9922L33.9775 54.1358C33.1308 54.1621 32.6162 53.7149 32.624 53.1875L32.8105 39.5508ZM35.9209 44.2412L38.1191 44.086C38.9248 44.0293 39.3457 43.2256 39.3623 42.4717C39.3779 41.6934 38.9882 40.9483 38.1797 41.0156L35.9736 41.1983L35.9209 44.2412ZM37.8759 51.0791C38.9267 51.0342 39.5752 50.3965 39.6054 48.9961L39.6132 48.6455C39.6455 47.1524 39.0185 46.6621 37.9619 46.7256L35.875 46.8516L35.8007 51.169L37.8759 51.0791Z" fill="#314C8F"/>
<path d="M49.7705 43.9512L53.2832 43.7119C53.9971 43.6631 54.3779 44.3144 54.3496 45.0625C54.3252 45.6933 53.9629 46.458 53.1806 46.5029L49.6797 46.7051L49.5517 50.5781L55.8418 50.3076C56.5644 50.2764 56.9453 51.0039 56.9092 51.8652C56.8779 52.6084 56.5068 53.4307 55.7148 53.4551L47.456 53.7139C46.6943 53.7373 45.9463 53.4062 45.9668 52.6933L46.3838 38.3193C46.4043 37.583 47.1894 37.1406 47.9668 37.0664L56.4053 36.2656C57.2148 36.1885 57.5254 36.998 57.4931 37.7666C57.456 38.6533 57.0078 39.4541 56.2744 39.5146L49.8994 40.0439L49.7705 43.9512Z" fill="#314C8F"/>
<path d="M67.8399 48.3359C67.999 45.3788 59.8613 46.3544 60.1113 40.7577C60.2725 37.1318 63.6738 35.4276 66.9375 35.1161C68.3447 34.9814 72.2803 34.8593 72.166 36.8378C72.126 37.5204 71.5557 38.9482 70.3643 39.0439C69.3975 39.122 68.9404 38.2148 66.7676 38.3974C64.9121 38.5526 64.127 39.3261 64.0889 40.0849C63.9697 42.5234 72.3867 41.4609 72.0195 47.7392C71.8125 51.288 68.9092 53.2821 65.1416 53.3974C61.8242 53.498 59.1641 52.0849 59.2324 50.536C59.2676 49.7362 60.0625 48.5214 61.0088 48.4745C62.1895 48.4169 62.8623 50.1474 65.2354 50.0468C66.4248 49.997 67.7774 49.5028 67.8399 48.3359V48.3359Z" fill="#314C8F"/>
<path d="M89.3808 33.1347C90.4014 33.0371 90.7597 33.9716 90.6894 34.8652C90.6094 35.8906 90.0146 36.8222 89.0918 36.8984L84.9199 37.2431L83.9023 51.3496C83.8437 52.167 82.6797 52.6103 81.5547 52.6455C80.4375 52.6806 79.3554 52.3134 79.4101 51.5088L80.3408 37.6211L76.4053 37.9463C75.5635 38.0156 75.1406 37.2129 75.2002 36.2412C75.2519 35.3955 75.7011 34.4336 76.6308 34.3447L89.3808 33.1347Z" fill="#314C8F"/>
<path d="M28.7012 59.623C28.706 59.1104 29.1543 58.6533 29.834 58.6445L33.9297 58.5898C36.6133 58.5537 38.7431 59.8486 38.668 63.416L38.666 63.5215C38.5918 67.0576 36.3525 68.3398 33.582 68.2686L31.6328 68.2178L31.5762 72.5869C31.5683 73.2305 30.8096 73.5156 30.0586 73.4805C29.3135 73.4443 28.5752 73.0918 28.582 72.4561L28.7012 59.623ZM31.7197 61.4365L31.664 65.7715L33.6191 65.8027C34.7392 65.8203 35.4355 65.167 35.4599 63.751L35.4639 63.5215C35.4883 62.0996 34.8115 61.4307 33.6855 61.4326L31.7197 61.4365Z" fill="#314C8F"/>
<path d="M41.4521 59.5038C41.4648 58.9647 41.8828 58.4842 42.5058 58.4754L47.0429 58.4149C50.1357 58.3739 52.6074 59.4891 52.4726 63.1424C52.3808 65.6346 51.1592 67.0292 49.5527 67.5887L52.1504 72.5018C52.2373 72.6366 52.2549 72.7909 52.251 72.8993C52.2187 73.7499 51.0039 74.6073 49.9678 74.5575C49.5205 74.536 49.1015 74.3436 48.8721 73.8807L46.0254 68.0516L44.5869 68.0174L44.4433 73.1483C44.4248 73.8251 43.5791 74.1239 42.749 74.0838C41.9238 74.0448 41.1123 73.6717 41.1279 73.0038L41.4521 59.5038ZM44.7705 61.412L44.6582 65.4393L46.8291 65.4686C48.0732 65.4862 48.8506 64.992 48.9013 63.4549C48.9512 61.912 48.2031 61.4061 46.9521 61.4081L44.7705 61.412Z" fill="#314C8F"/>
<path d="M55.9775 59.3683C56.0078 58.6154 56.956 58.2833 57.8965 58.2706C58.8437 58.2579 59.7832 58.5695 59.749 59.3331L59.0976 73.7892C59.0654 74.5031 58.1162 74.8156 57.1885 74.7716C56.2685 74.7277 55.3682 74.3322 55.3975 73.6271L55.9775 59.3683Z" fill="#314C8F"/>
<path d="M69.956 61.3661C68.4629 61.369 67.5654 62.1268 67.4785 63.7313L67.1426 69.9257C67.0566 71.5018 67.8613 72.2723 69.3574 72.327C71.4482 72.4042 71.665 70.9764 71.7988 70.0594C71.9306 69.1874 72.8486 68.9735 73.9199 68.9999C75.3779 69.036 76.0371 69.3885 75.9443 70.8251C75.7392 73.9921 72.7344 75.6522 68.9971 75.4725C65.6582 75.3114 63.0117 73.7323 63.206 69.8133L63.5088 63.7049C63.708 59.6932 66.5644 58.1542 69.9824 58.1092C73.8105 58.0585 76.6562 59.787 76.456 62.8895C76.3623 64.3475 75.6562 64.6805 74.2158 64.6669C73.0849 64.6561 72.1914 64.3837 72.1894 63.5223C72.1992 62.8993 72.2109 61.3622 69.956 61.3661V61.3661Z" fill="#314C8F"/>
<path d="M84.6084 65.5653L89.0234 65.62C89.9228 65.6317 90.375 66.373 90.3086 67.1825C90.2539 67.8651 89.7685 68.662 88.7842 68.6405L84.3877 68.5419L84.0771 72.7245L91.9765 73.0116C92.8877 73.0448 93.3369 73.871 93.2578 74.8017C93.1894 75.6054 92.6894 76.4618 91.6924 76.4149L81.3369 75.9218C80.3847 75.8759 79.4648 75.4481 79.5185 74.6806L80.5889 59.163C80.6445 58.3661 81.6416 57.954 82.6181 57.9413L93.2461 57.7997C94.2695 57.786 94.6289 58.6942 94.5576 59.5282C94.4756 60.4901 93.8779 61.3222 92.9521 61.3241L84.9219 61.3388L84.6084 65.5653Z" fill="#314C8F"/>
</g>
<defs>
<clipPath id="clip0">
<rect width="128" height="128" fill="white"/>
</clipPath>
</defs>
</svg>
