<svg width="64" height="64" viewBox="0 0 64 64" fill="none" xmlns="http://www.w3.org/2000/svg">
<g clip-path="url(#clip0)">
<path d="M23.0994 50.2546L23.1987 50.2352C25.6343 49.753 27.2184 47.3876 26.7362 44.9515L24.183 32.0562L19.6736 32.9492L23.0994 50.2546Z" fill="#FCDA4F"/>
<path d="M24.9803 6.31293C19.8165 6.20495 15.4999 12.3298 15.339 19.9939C15.1781 27.658 19.2334 33.9588 24.3972 34.0673C29.561 34.1759 33.8776 28.051 34.0385 20.3869C34.1994 12.7228 30.1441 6.42145 24.9803 6.31293Z" fill="#CCC033"/>
<path d="M29.5858 16.6901C28.7473 12.4539 26.8695 8.82463 24.4836 6.32373C19.4305 6.61205 15.3574 12.8243 15.3347 20.3659C15.3126 27.7439 19.1751 33.7035 24.0727 34.0523C28.6917 31.5697 31.1127 24.4018 29.5858 16.6901Z" fill="#99AF17"/>
<path d="M23.0993 50.2545L22.9999 50.2745C20.5644 50.7561 18.199 49.1731 17.7168 46.737L15.1636 33.8416L19.673 32.9486L23.0993 50.2545Z" fill="#FCDA4F"/>
<path d="M18.7843 19.3135C15.7154 12.2892 9.39032 8.27062 4.6574 10.3385C-0.0760485 12.4064 -1.42422 19.7779 1.64467 26.8027C4.7141 33.8276 11.0392 37.8457 15.7721 35.7778C20.505 33.7099 21.8538 26.3384 18.7843 19.3135Z" fill="#99AF17"/>
<path d="M27.8225 17.0405C26.0742 8.20802 19.8095 2.00708 13.83 3.19058C7.85038 4.37462 4.42083 12.4944 6.16962 21.3269C7.91787 30.1594 14.1825 36.3604 20.1621 35.1763C26.1411 33.9928 29.5712 25.873 27.8225 17.0405Z" fill="#EACF32"/>
<path d="M12.0515 20.1612C10.6007 12.8351 12.7134 5.99921 16.8886 3.20568C15.8763 3.00159 14.8488 2.98809 13.8294 3.19056C7.85039 4.37406 4.42083 12.4939 6.16962 21.3258C7.91788 30.1583 14.1825 36.3587 20.1616 35.1752C21.1809 34.9733 22.1258 34.5695 22.9843 33.995C18.0597 33.0032 13.5017 27.4879 12.0515 20.1612Z" fill="#CCC033"/>
<path d="M16.2703 20.4582C14.0113 20.4582 12.1918 19.2477 12.1027 19.1872C11.7237 18.9302 11.6244 18.4151 11.8808 18.0356C12.1373 17.6565 12.6518 17.5567 13.0309 17.812C13.06 17.8315 15.0647 19.1456 17.1493 18.7105C18.3285 18.4643 19.3419 17.6906 20.1621 16.4109C20.4088 16.0249 20.9212 15.9121 21.3078 16.1599C21.6933 16.4072 21.8056 16.9201 21.5583 17.3056C20.4849 18.9804 19.1108 20.0003 17.4722 20.3378C17.0635 20.422 16.6607 20.4582 16.2703 20.4582Z" fill="#FFEEA4"/>
<path d="M17.6316 27.8939C14.2269 27.8939 11.3615 25.5037 11.2255 25.3887C10.8762 25.0928 10.833 24.5696 11.1288 24.2203C11.4247 23.871 11.9468 23.8272 12.2967 24.1226C12.3285 24.149 15.5076 26.7892 18.6931 26.1284C20.5067 25.7526 22.0281 24.3542 23.216 21.9715C23.42 21.5617 23.9184 21.3949 24.3276 21.599C24.7374 21.8036 24.9043 22.3014 24.7002 22.7112C23.2721 25.576 21.3608 27.273 19.0192 27.7546C18.5511 27.8512 18.0862 27.8939 17.6316 27.8939Z" fill="#FFEEA4"/>
<path d="M17.1866 14.1844C17.0613 13.6385 16.4826 13.2984 15.8816 13.4177C15.2823 13.5365 14.8774 14.0683 14.967 14.6201L20.4801 48.5636C20.4947 48.6527 20.5217 48.7364 20.5584 48.8152C20.8759 49.8432 21.9654 50.4792 23.0933 50.2562C23.1014 50.2546 23.109 50.2519 23.1165 50.2503C23.1257 50.2487 23.1349 50.2476 23.1441 50.246C24.2579 50.0257 25.0089 49.0231 24.8993 47.9551C24.9037 47.8703 24.8972 47.7839 24.8772 47.6976L17.1866 14.1844Z" fill="#FFF9DC"/>
<path d="M21.8909 48.5512C21.8542 48.4724 21.8267 48.3887 21.8126 48.2996L16.2995 14.356C16.2471 14.0343 16.3638 13.72 16.5884 13.49C16.3773 13.3988 16.1316 13.368 15.8816 13.4177C15.2823 13.5359 14.8774 14.0683 14.967 14.6195L20.4801 48.5631C20.4947 48.6521 20.5217 48.7364 20.5584 48.8147C20.8759 49.8427 21.9654 50.4792 23.0933 50.2557C23.1014 50.2541 23.109 50.2519 23.1165 50.2503C23.1257 50.2481 23.1349 50.2476 23.144 50.246C23.366 50.2017 23.5727 50.1261 23.7617 50.0257C22.8941 49.9447 22.1447 49.374 21.8909 48.5512Z" fill="#FFF4C1"/>
<path d="M39.9787 45.4893C38.6597 44.7593 38.0426 43.2114 38.515 41.8195L45.514 21.2027C46.8827 17.1706 51.6377 15.4132 55.4576 17.5281C59.2775 19.6429 60.3126 24.6053 57.6222 27.9058L43.8656 44.7815C42.9369 45.9212 41.2977 46.2198 39.9787 45.4893Z" fill="#FF624B"/>
<path d="M60.9825 12.3049H60.9814C61.1947 12.097 61.382 11.8557 61.5338 11.5819C62.3863 10.0421 61.7962 8.0838 60.2153 7.20859C58.6349 6.33393 56.6621 6.87331 55.8096 8.41315C55.6584 8.68689 55.5531 8.97358 55.4899 9.2646H55.4894L55.4878 9.27378C55.4705 9.35584 55.4565 9.43845 55.4457 9.5216L54.469 15.2426C54.3885 15.7134 54.6223 16.189 55.0499 16.4255C55.471 16.6588 55.9899 16.6096 56.3462 16.3019L60.6969 12.5505C60.7935 12.4771 60.8853 12.3972 60.9733 12.3124L60.9825 12.3049Z" fill="#EACF32"/>
<path d="M45.5928 37.6496C45.4827 37.6496 45.3704 37.6275 45.2629 37.5805L41.7432 36.051C41.3231 35.8685 41.1304 35.3804 41.3129 34.9598C41.4954 34.5403 41.984 34.347 42.4041 34.53L45.9238 36.0596C46.3439 36.2415 46.5366 36.7302 46.3541 37.1502C46.2181 37.4628 45.9135 37.6496 45.5928 37.6496Z" fill="#FF4B34"/>
<path d="M50.837 34.9544C50.7274 34.9544 50.6151 34.9323 50.5071 34.8853L45.9302 32.8979C45.5101 32.7154 45.3174 32.2268 45.4999 31.8067C45.6824 31.3867 46.1699 31.1934 46.5905 31.3764L51.1679 33.3638C51.588 33.5463 51.7807 34.035 51.5983 34.455C51.4627 34.7676 51.1577 34.9544 50.837 34.9544Z" fill="#FF4B34"/>
<path d="M49.0293 28.9981C48.9197 28.9981 48.8069 28.9759 48.7 28.929L45.1803 27.3994C44.7597 27.2169 44.5675 26.7283 44.75 26.3082C44.9319 25.8887 45.4216 25.6954 45.8406 25.8784L49.3603 27.4075C49.7803 27.59 49.9731 28.0791 49.7906 28.4986C49.6551 28.8113 49.35 28.9981 49.0293 28.9981Z" fill="#FF4B34"/>
<path d="M55.949 27.1424C55.8388 27.1424 55.7265 27.1202 55.6191 27.0738L49.3058 24.3321C48.8858 24.1496 48.693 23.661 48.8755 23.2409C49.058 22.8209 49.5455 22.6281 49.9661 22.8106L56.28 25.5523C56.7 25.7348 56.8928 26.2234 56.7103 26.6435C56.5742 26.9561 56.2692 27.1424 55.949 27.1424Z" fill="#FF4B34"/>
<path d="M55.971 16.5147C55.9732 16.4947 55.9753 16.4742 55.9786 16.4537L56.9547 10.7327C56.9655 10.6495 56.9796 10.5669 56.9974 10.4849L56.999 10.4757H56.9996C57.0627 10.1847 57.1675 9.89798 57.3186 9.62424C58.1058 8.2021 59.8476 7.63465 61.3545 8.24422C61.0711 7.82956 60.6877 7.47051 60.2153 7.20919C58.6344 6.33399 56.6621 6.87337 55.809 8.41375C55.6579 8.68695 55.5531 8.97364 55.4899 9.2652L55.4894 9.26466L55.4878 9.27438C55.47 9.35644 55.4559 9.43905 55.4451 9.52166L54.469 15.2432C54.3885 15.714 54.6223 16.1891 55.0494 16.4261C55.3393 16.5859 55.6741 16.6124 55.971 16.5147Z" fill="#CCC033"/>
<path d="M55.5159 15.5007L54.5349 10.8763C54.5203 10.778 54.4992 10.6798 54.4728 10.5826L54.4706 10.5739H54.4701C54.4047 10.3369 54.3054 10.1042 54.1688 9.88285C53.3994 8.63564 51.764 8.21775 50.5157 8.94934C49.2674 9.68146 48.8798 11.2861 49.6491 12.5333C49.7857 12.7547 49.9499 12.949 50.134 13.1164L50.1335 13.117L50.1399 13.1218C50.1918 13.1688 50.2452 13.2136 50.3008 13.2563L54.0192 16.3613C54.3254 16.6167 54.7578 16.6556 55.0953 16.4574C55.4284 16.2625 55.5963 15.8797 55.5159 15.5007Z" fill="#FCE575"/>
<path d="M52.1652 12.3988C52.1106 12.3567 52.0566 12.3119 52.0043 12.2649L51.9983 12.2595L51.9989 12.259C51.8148 12.0922 51.6506 11.8973 51.514 11.6759C50.8893 10.6636 51.0276 9.4158 51.7689 8.59027C51.3385 8.60323 50.9077 8.71931 50.5157 8.94932C49.2674 9.6809 48.8798 11.2861 49.6491 12.5333C49.7857 12.7546 49.9499 12.949 50.134 13.1164L50.1335 13.1169L50.1399 13.1218C50.1918 13.1688 50.2452 13.2136 50.3008 13.2562L54.0192 16.3613C54.3254 16.6167 54.7578 16.6555 55.0953 16.4574C55.4284 16.2625 55.5963 15.8797 55.5159 15.5007L55.4376 15.1314L52.1652 12.3988Z" fill="#EACF32"/>
<path d="M63.999 16.4137C63.9563 14.9673 62.734 13.8032 61.2686 13.8129C61.0084 13.8145 60.7584 13.8545 60.523 13.9247V13.9241L60.5144 13.9274C60.4177 13.9565 60.3233 13.9911 60.232 14.0305L55.7923 15.6535C55.4289 15.7863 55.1935 16.1324 55.2049 16.5179C55.2162 16.9094 55.4786 17.2554 55.8576 17.3791L60.4631 18.8817C60.5279 18.906 60.5943 18.9276 60.6618 18.947L60.6699 18.9492V18.9486C60.9096 19.0161 61.1612 19.0518 61.4214 19.0501C62.8873 19.0404 64.0411 17.8596 63.999 16.4137Z" fill="#FCE575"/>
<path d="M63.2863 18.1927C63.0261 18.1949 62.7739 18.1587 62.5348 18.0917V18.0923L62.5267 18.0896C62.4592 18.0707 62.3928 18.0486 62.328 18.0248L57.7225 16.5217C57.3435 16.398 57.0811 16.0519 57.0697 15.661C57.0638 15.4661 57.121 15.282 57.2258 15.1298L55.7923 15.654C55.4289 15.7868 55.1935 16.1324 55.2049 16.5184C55.2162 16.9093 55.4786 17.2554 55.8576 17.3791L60.4631 18.8822C60.5279 18.9059 60.5943 18.9281 60.6618 18.947L60.6699 18.9497V18.9491C60.9096 19.0166 61.1612 19.0523 61.4215 19.0506C62.1941 19.0452 62.8798 18.7143 63.3495 18.1911C63.3284 18.1916 63.3079 18.1927 63.2863 18.1927Z" fill="#EACF32"/>
<path d="M42.1708 42.7546L49.1697 22.1379C50.1254 19.3222 52.7326 17.6161 55.5192 17.5632C55.4986 17.5513 55.4781 17.5394 55.4576 17.5281C51.6377 15.4132 46.8826 17.1706 45.5139 21.2027L38.515 41.8195C38.042 43.2114 38.6597 44.7593 39.9782 45.4893C40.8469 45.9698 41.8538 46.0044 42.7058 45.6469C42.0569 44.8463 41.8295 43.7599 42.1708 42.7546Z" fill="#FF4B34"/>
<path d="M32.7908 24.9762C32.3772 24.9762 32.0349 24.6415 32.01 24.2117L31.6629 18.3244C31.6353 17.8558 31.9933 17.46 32.4441 17.46H33.1374C33.5887 17.46 33.9462 17.8558 33.9186 18.3244L33.572 24.2117C33.5472 24.6415 33.2049 24.9762 32.7908 24.9762Z" fill="#BF6C0D"/>
<path d="M33.6515 22.2334C38.3779 24.8515 39.6678 19.4027 39.9577 17.6198C40.0063 17.3186 39.8049 17.0357 39.5134 16.9946C37.7516 16.75 32.1564 16.3721 33.2562 21.6897C33.3043 21.9225 33.449 22.1217 33.6515 22.2334Z" fill="#EACF32"/>
<path d="M32.7406 24.2117L32.3939 18.3244C32.3669 17.8623 32.7141 17.4719 33.1563 17.4611C33.1498 17.4606 33.1439 17.46 33.1374 17.46H32.4441C31.9933 17.46 31.6353 17.8558 31.6629 18.3244L32.01 24.2117C32.0354 24.6415 32.3772 24.9762 32.7908 24.9762C32.9225 24.9762 33.0472 24.9422 33.1563 24.8823C32.9225 24.7532 32.7573 24.5043 32.7406 24.2117Z" fill="#8C4C17"/>
<path d="M39.7686 22.4851C37.3077 21.9559 34.8176 22.7275 32.7724 24.405C30.7266 22.7275 28.2365 21.9559 25.7756 22.4851C20.8094 23.5535 17.8436 29.5132 19.1513 35.7967C20.459 42.0803 25.5445 46.3084 30.5106 45.2404C31.3211 45.066 32.078 44.761 32.7718 44.3458C33.4656 44.761 34.2226 45.066 35.033 45.2404C39.9991 46.3084 45.0852 42.0803 46.3923 35.7967C47.7005 29.5132 44.7348 23.5535 39.7686 22.4851Z" fill="#FF624B"/>
<path d="M34.6789 22.4013C33.7395 17.8552 37.6911 17.4719 39.9587 17.609C40.0014 17.3121 39.8016 17.0346 39.5133 16.9946C37.7516 16.7495 32.157 16.3715 33.2562 21.6897C33.3043 21.9219 33.4501 22.1217 33.652 22.2334C34.0775 22.4694 34.4754 22.6389 34.8468 22.7523C34.7653 22.6524 34.7065 22.5325 34.6789 22.4013Z" fill="#CCC033"/>
<path d="M23.421 35.7966C22.1641 29.7566 24.8561 24.0162 29.4778 22.6319C28.277 22.2831 27.0228 22.2172 25.7756 22.485C20.8094 23.5535 17.8436 29.5131 19.1513 35.7966C20.459 42.0802 25.5445 46.3083 30.5106 45.2403C30.7029 45.1993 30.8918 45.1496 31.0776 45.094C27.4984 44.0547 24.4004 40.502 23.421 35.7966Z" fill="#FF4B34"/>
<path d="M5.11523 59.3959V27.7952C5.11523 27.0555 5.71454 26.4562 6.45423 26.4562H12.7837C13.5234 26.4562 14.1227 27.0555 14.1227 27.7952V59.3959C14.1227 60.1351 13.5234 60.7344 12.7837 60.7344H6.45423C5.71454 60.7344 5.11523 60.1351 5.11523 59.3959Z" fill="#DB9C2E"/>
<path d="M50.0131 59.3959V27.7952C50.0131 27.0555 50.6124 26.4562 51.3521 26.4562H57.6815C58.4212 26.4562 59.0205 27.0555 59.0205 27.7952V59.3959C59.0205 60.1351 58.4212 60.7344 57.6815 60.7344H51.3521C50.6129 60.7344 50.0131 60.1351 50.0131 59.3959Z" fill="#DB9C2E"/>
<path d="M61.7848 38.4666H2.35069C1.58725 38.4666 0.968506 37.8478 0.968506 37.0844V30.8645C0.968506 30.1011 1.58725 29.4824 2.35069 29.4824H61.7848C62.5482 29.4824 63.1669 30.1011 63.1669 30.8645V37.0844C63.1669 37.8478 62.5482 38.4666 61.7848 38.4666Z" fill="#FFC34C"/>
<path d="M61.7848 49.6623H2.35069C1.58725 49.6623 0.968506 49.0436 0.968506 48.2801V42.0603C0.968506 41.2968 1.58725 40.6781 2.35069 40.6781H61.7848C62.5482 40.6781 63.1669 41.2968 63.1669 42.0603V48.2801C63.1669 49.0436 62.5482 49.6623 61.7848 49.6623Z" fill="#FFC34C"/>
<path d="M61.7848 60.858H2.35069C1.58725 60.858 0.968506 60.2392 0.968506 59.4758V53.256C0.968506 52.4925 1.58725 51.8738 2.35069 51.8738H61.7848C62.5482 51.8738 63.1669 52.4925 63.1669 53.256V59.4758C63.1669 60.2392 62.5482 60.858 61.7848 60.858Z" fill="#FFC34C"/>
<path d="M60.6792 59.1988C60.2213 59.1988 59.8499 58.8279 59.8499 58.3695V54.3612C59.8499 53.9033 60.2213 53.5319 60.6792 53.5319C61.137 53.5319 61.5085 53.9033 61.5085 54.3612V58.3695C61.5085 58.8279 61.137 59.1988 60.6792 59.1988Z" fill="#FFD551"/>
<path d="M55.8416 56.0204C55.8416 56.7838 55.2228 57.4026 54.4594 57.4026C53.6959 57.4026 53.0771 56.7838 53.0771 56.0204C53.0771 55.2569 53.6959 54.6382 54.4594 54.6382C55.2228 54.6382 55.8416 55.2569 55.8416 56.0204Z" fill="#FFDF74"/>
<path d="M55.8416 44.8246C55.8416 45.5881 55.2228 46.2068 54.4594 46.2068C53.6959 46.2068 53.0771 45.5881 53.0771 44.8246C53.0771 44.0612 53.6959 43.4424 54.4594 43.4424C55.2228 43.4424 55.8416 44.0612 55.8416 44.8246Z" fill="#FFDF74"/>
<path d="M55.8416 33.629C55.8416 34.3924 55.2228 35.0111 54.4594 35.0111C53.6959 35.0111 53.0771 34.3924 53.0771 33.629C53.0771 32.8655 53.6959 32.2468 54.4594 32.2468C55.2228 32.2468 55.8416 32.8655 55.8416 33.629Z" fill="#FFDF74"/>
<path d="M9.26163 48.2801V42.0603C9.26163 41.2968 9.88038 40.6781 10.6438 40.6781H2.35069C1.58725 40.6781 0.968506 41.2968 0.968506 42.0603V48.2801C0.968506 49.0436 1.58725 49.6623 2.35069 49.6623H10.6438C9.88038 49.6623 9.26163 49.0436 9.26163 48.2801Z" fill="#F9BB32"/>
<path d="M9.26163 59.4758V53.256C9.26163 52.4925 9.88038 51.8738 10.6438 51.8738H2.35069C1.58725 51.8738 0.968506 52.4925 0.968506 53.256V59.4758C0.968506 60.2392 1.58725 60.858 2.35069 60.858H10.6438C9.88038 60.858 9.26163 60.2392 9.26163 59.4758Z" fill="#F9BB32"/>
<path d="M9.26163 37.0844V30.8645C9.26163 30.1011 9.88038 29.4824 10.6438 29.4824H2.35069C1.58725 29.4824 0.968506 30.1011 0.968506 30.8645V37.0844C0.968506 37.8478 1.58725 38.4666 2.35069 38.4666H10.6438C9.88038 38.4666 9.26163 37.8478 9.26163 37.0844Z" fill="#F9BB32"/>
<path d="M11.0586 33.629C11.0586 34.3924 10.4398 35.0111 9.67637 35.0111C8.91293 35.0111 8.29419 34.3924 8.29419 33.629C8.29419 32.8655 8.91293 32.2468 9.67637 32.2468C10.4398 32.2468 11.0586 32.8655 11.0586 33.629Z" fill="#FFDF74"/>
<path d="M11.0586 44.8246C11.0586 45.5881 10.4398 46.2068 9.67637 46.2068C8.91293 46.2068 8.29419 45.5881 8.29419 44.8246C8.29419 44.0612 8.91293 43.4424 9.67637 43.4424C10.4398 43.4424 11.0586 44.0612 11.0586 44.8246Z" fill="#FFDF74"/>
<path d="M11.0586 56.0204C11.0586 56.7838 10.4398 57.4026 9.67637 57.4026C8.91293 57.4026 8.29419 56.7838 8.29419 56.0204C8.29419 55.2569 8.91293 54.6382 9.67637 54.6382C10.4398 54.6382 11.0586 55.2569 11.0586 56.0204Z" fill="#FFDF74"/>
<path d="M9.26171 46.1431V43.5056C8.70128 43.6816 8.29419 44.2059 8.29419 44.8246C8.29419 45.4434 8.70074 45.9671 9.26171 46.1431Z" fill="#FFD551"/>
<path d="M9.26171 57.3388V54.7014C8.70128 54.8774 8.29419 55.4016 8.29419 56.0204C8.29419 56.6391 8.70074 57.1628 9.26171 57.3388Z" fill="#FFD551"/>
<path d="M9.26171 34.9475V32.3099C8.70128 32.486 8.29419 33.0102 8.29419 33.629C8.29419 34.2477 8.70074 34.7714 9.26171 34.9475Z" fill="#FFD551"/>
<path d="M20.5908 33.6289C20.5908 34.9647 19.5078 36.0477 18.172 36.0477C16.8362 36.0477 15.7532 34.9647 15.7532 33.6289C15.7532 32.2932 16.8362 31.2101 18.172 31.2101C19.5078 31.2101 20.5908 32.2932 20.5908 33.6289Z" fill="#F9BB32"/>
<path d="M28.8839 44.8246C28.8839 46.1604 27.8009 47.2435 26.4651 47.2435C25.1293 47.2435 24.0463 46.1604 24.0463 44.8246C24.0463 43.4889 25.1293 42.4058 26.4651 42.4058C27.8009 42.4058 28.8839 43.4889 28.8839 44.8246Z" fill="#F9BB32"/>
<path d="M60.6792 48.0032C60.2213 48.0032 59.8499 47.6322 59.8499 47.1738V43.1655C59.8499 42.7076 60.2213 42.3362 60.6792 42.3362C61.137 42.3362 61.5085 42.7076 61.5085 43.1655V47.1738C61.5085 47.6322 61.137 48.0032 60.6792 48.0032Z" fill="#FFD551"/>
<path d="M60.6792 36.3927C60.2213 36.3927 59.8499 36.0218 59.8499 35.5634V31.5551C59.8499 31.0972 60.2213 30.7258 60.6792 30.7258C61.137 30.7258 61.5085 31.0972 61.5085 31.5551V35.5634C61.5085 36.0218 61.137 36.3927 60.6792 36.3927Z" fill="#FFD551"/>
</g>
<defs>
<clipPath id="clip0">
<rect width="64" height="64" fill="white"/>
</clipPath>
</defs>
</svg>
