<svg width="184" height="189" viewBox="0 0 184 189" fill="none" xmlns="http://www.w3.org/2000/svg">
<g opacity="0.9" filter="url(#filter0_d)">
<path d="M168.824 126C168.824 135.941 131.927 144 86.4118 144C40.897 144 4 135.941 4 126C4 116.059 40.897 108 86.4118 108C131.927 108 168.824 116.059 168.824 126Z" fill="black" fill-opacity="0.2"/>
</g>
<g clip-path="url(#clip0)">
<path d="M128.934 52.2869C151.235 61.7603 144.38 77.4578 136.12 96.9029C127.859 116.348 111.248 127.901 99.0199 122.707L98.3866 122.438C86.157 117.243 82.9408 97.2668 91.201 77.8216C99.4613 58.3765 106 42.5445 128.301 52.0178" fill="#D6A550"/>
<path d="M138.609 43.9912C139.831 43.1016 141.111 42.3282 142.402 41.7306C147.09 33.7468 157.576 30.0679 163.761 30.503C163.761 30.503 161.325 23.4308 155.236 21.8853C148.926 20.2834 143.913 22.7283 140.069 26.5028C142.299 32.3721 140.453 39.3384 138.609 43.9912Z" fill="#88C057"/>
<path d="M121.015 49.6908C123.245 50.1391 125.659 50.8958 128.302 52.0184L128.38 52.0515C128.38 52.0515 132.581 42.8064 126.159 37.9828C119.738 33.1592 116.252 38.1494 116.252 38.1494C121.611 42.7689 121.468 47.4986 121.015 49.6908Z" fill="#659C35"/>
<path d="M136.676 56.654C139.035 54.2611 147.331 49.6322 155.322 50.3712C155.322 50.3712 155.892 41.955 147.962 40.6821C140.033 39.4091 129.769 52.6414 129.769 52.6414C129.769 52.6414 129.804 52.6672 129.856 52.7025C132.569 53.9228 134.825 55.2421 136.676 56.654Z" fill="#659C35"/>
<path d="M128.948 41.5648C130.786 45.9595 128.772 51.1132 128.431 51.9285C128.883 52.1558 129.362 52.3551 129.854 52.5332C130.366 51.8868 133.383 48.1654 137.241 45.042C137.414 44.8637 137.567 44.7341 137.683 44.7003C137.865 44.5568 138.052 44.4175 138.237 44.277C138.362 44.1835 138.483 44.084 138.61 43.9917C141.3 37.2019 144.003 25.4853 134.03 19.4506C128.977 16.3918 122.734 19.0273 122.734 19.0273C127.476 23.1131 132.427 33.3542 128.948 41.5648Z" fill="#A4E869"/>
<path d="M98.5154 95.336L90.449 100.019L91.2996 103.473L96.2892 100.577L97.6685 106.179L100.745 104.393L98.5154 95.336Z" fill="#F4C44E"/>
<path d="M96.2344 113.414L97.085 116.869L102.075 113.972L103.454 119.574L106.531 117.788L104.301 108.731L96.2344 113.414Z" fill="#F4C44E"/>
<path d="M109.892 108.278L110.742 111.733L115.732 108.836L117.111 114.438L120.188 112.652L117.958 103.595L109.892 108.278Z" fill="#F4C44E"/>
<path d="M97.5973 88.648L102.587 85.7515L103.966 91.3535L107.043 89.5674L104.813 80.5108L96.7467 85.1935L97.5973 88.648Z" fill="#F4C44E"/>
<path d="M109.159 97.2937L110.539 102.896L113.616 101.11L111.386 92.053L103.319 96.7357L104.17 100.19L109.159 97.2937Z" fill="#F4C44E"/>
<path d="M92.1373 83.8763L88.4229 86.0326L89.2735 89.4871L89.9111 89.117L91.2904 94.7191L94.3673 92.9329L92.1373 83.8763Z" fill="#F4C44E"/>
<path d="M122.03 94.0108L123.409 99.6128L126.486 97.8266L124.256 88.7701L116.19 93.4528L117.04 96.9073L122.03 94.0108Z" fill="#F4C44E"/>
<path d="M103.044 70.3683L103.895 73.8228L108.885 70.9263L110.264 76.5284L113.341 74.7422L111.111 65.6856L103.044 70.3683Z" fill="#F4C44E"/>
<path d="M115.457 82.4686L116.837 88.0706L119.913 86.2844L117.683 77.2278L109.617 81.9105L110.468 85.3651L115.457 82.4686Z" fill="#F4C44E"/>
<path d="M130.554 73.9449L122.487 78.6276L123.338 82.0821L128.327 79.1856L129.707 84.7876L132.784 83.0015L130.554 73.9449Z" fill="#F4C44E"/>
<path d="M115.182 56.101L116.562 61.703L119.639 59.9169L117.409 50.8603L109.342 55.543L110.193 58.9975L115.182 56.101Z" fill="#F4C44E"/>
<path d="M116.765 70.5398L121.755 67.6432L123.134 73.2453L126.211 71.4591L123.981 62.4025L115.915 67.0852L116.765 70.5398Z" fill="#F4C44E"/>
<path d="M134.625 64.3603L136.005 69.9623L139.081 68.1761L136.851 59.1196L128.785 63.8023L129.636 67.2568L134.625 64.3603Z" fill="#F4C44E"/>
<path d="M143.908 72.8187L143.762 70.4642L135.358 75.3445L136.208 78.7991L140.86 76.1002L141.134 80.5592L142.535 80.0867C143.248 77.5589 143.732 75.135 143.908 72.8187Z" fill="#F4C44E"/>
<path d="M130.398 100.561L122.761 104.994L123.611 108.449L129.03 105.304L130.378 107.359C131.144 106.25 131.886 105.106 132.592 103.907L130.398 100.561Z" fill="#F4C44E"/>
<path d="M104.26 54.305C103.182 55.3633 102.172 56.564 101.214 57.8852L101.674 59.7542L102.312 59.3841L103.691 64.9861L106.768 63.1999L104.538 54.1433L104.26 54.305Z" fill="#F4C44E"/>
<path d="M138.529 91.182L137.126 85.4871L129.06 90.1698L129.91 93.6244L134.9 90.7278L135.678 93.8868L137.954 92.5655C138.147 92.1028 138.339 91.6396 138.529 91.182Z" fill="#F4C44E"/>
<path d="M93.9311 71.4692C93.5469 72.3429 93.1622 73.2251 92.7763 74.1222L93.1998 75.8421L96.0133 74.2088L97.3927 79.8108L100.47 78.0246L98.2396 68.968L93.9311 71.4692Z" fill="#F4C44E"/>
</g>
<g clip-path="url(#clip1)">
<path d="M94.9315 64.7741C94.6766 64.7741 94.4192 64.6874 94.2025 64.509C93.6782 64.0796 93.5812 63.2793 93.9847 62.7224C95.6079 60.4784 97.8021 58.9021 100.162 58.284C102.622 57.6405 104.968 58.1005 106.772 59.5813C107.296 60.0107 107.393 60.811 106.99 61.3678C106.585 61.9247 105.833 62.0279 105.311 61.5998C104.095 60.602 102.472 60.3063 100.734 60.7587C98.8998 61.2391 97.1749 62.4892 95.8808 64.2783C95.6462 64.6033 95.2907 64.7741 94.9315 64.7741Z" fill="#4C312C"/>
<path d="M54.2766 120.502C44.5743 113.131 44.9657 98.7878 51.467 87.551C53.8432 83.4439 57.0993 79.9931 60.7862 77.1897L78.242 63.9165C82.81 59.7049 88.1286 58.5491 93.2185 62.4167C98.3097 66.2829 99.0112 72.0134 96.7559 77.981L90.6389 99.8684C89.3472 104.492 87.3397 108.891 84.4632 112.618C76.5936 122.816 63.9788 127.873 54.2766 120.502Z" fill="#436B1C"/>
<path d="M57.4703 115.737C50.3394 110.319 51.3509 98.6935 56.9317 89.2395C58.9715 85.7835 61.6577 82.8093 64.6456 80.3346L74.0917 73.9121C76.9922 71.9408 79.8544 69.8943 82.5311 67.5916C85.1958 65.2978 87.4989 64.3319 90.4389 66.5658C93.4532 68.8557 93.2772 71.5776 92.0275 75.1406C91.247 77.368 90.5622 79.6389 90.0343 81.9479L86.5891 97.0063C85.3621 100.819 83.5929 104.49 81.1856 107.667C74.6005 116.358 64.6025 121.156 57.4703 115.737Z" fill="#F9EA80"/>
<path d="M74.7585 106.11C71.3684 111.168 65.4094 112.829 61.4506 109.821C57.4919 106.813 57.031 100.275 60.4212 95.2173C63.8113 90.1595 72.8396 83.9206 76.7983 86.9279C80.757 89.9353 78.1486 101.052 74.7585 106.11Z" fill="#A46F3E"/>
<path d="M62.601 104.568C63.5927 104.568 64.3966 103.712 64.3966 102.657C64.3966 101.601 63.5927 100.745 62.601 100.745C61.6093 100.745 60.8054 101.601 60.8054 102.657C60.8054 103.712 61.6093 104.568 62.601 104.568Z" fill="#DC9628"/>
<path d="M67.4204 100.481C68.4121 100.481 69.216 99.6256 69.216 98.5699C69.216 97.5142 68.4121 96.6584 67.4204 96.6584C66.4287 96.6584 65.6248 97.5142 65.6248 98.5699C65.6248 99.6256 66.4287 100.481 67.4204 100.481Z" fill="#DC9628"/>
<path d="M67.9148 107.499C68.9065 107.499 69.7104 106.643 69.7104 105.587C69.7104 104.532 68.9065 103.676 67.9148 103.676C66.9231 103.676 66.1192 104.532 66.1192 105.587C66.1192 106.643 66.9231 107.499 67.9148 107.499Z" fill="#DC9628"/>
</g>
<g clip-path="url(#clip2)">
<path d="M79.5 134.411C83.6421 134.411 87 130.141 87 124.875C87 119.609 83.6421 115.339 79.5 115.339C75.3579 115.339 72 119.609 72 124.875C72 130.141 75.3579 134.411 79.5 134.411Z" fill="#9777A8"/>
<path d="M84.5 101.036C88.6421 101.036 92 96.7664 92 91.4999C92 86.2335 88.6421 81.9642 84.5 81.9642C80.3579 81.9642 77 86.2335 77 91.4999C77 96.7664 80.3579 101.036 84.5 101.036Z" fill="#583E68"/>
<path d="M92 112.161C88.7775 112.161 86.0388 114.748 84.9775 118.375C86.2288 120.078 87 122.359 87 124.875C87 126.045 86.8263 127.16 86.5225 128.197C87.8925 130.059 89.8363 131.232 92 131.232C96.1425 131.232 99.5 126.963 99.5 121.696C99.5 116.429 96.1425 112.161 92 112.161Z" fill="#583E68"/>
<path d="M84.9775 118.375C85.72 115.838 87.2937 113.833 89.27 112.842C89.41 112.113 89.5 111.356 89.5 110.571C89.5 105.304 86.1425 101.036 82 101.036C77.8575 101.036 74.5 105.304 74.5 110.571C74.5 112.769 75.09 114.788 76.0725 116.399C77.1012 115.725 78.2638 115.339 79.5 115.339C81.9125 115.339 84.0538 116.793 85.425 119.044C85.2837 118.813 85.1338 118.589 84.9775 118.375Z" fill="#6F58A8"/>
<path d="M104.5 107.393C100.928 107.393 97.945 110.571 97.19 114.823C98.6113 116.557 99.5 118.993 99.5 121.696C99.5 122.421 99.4313 123.124 99.31 123.802C100.658 125.447 102.484 126.464 104.5 126.464C108.643 126.464 112 122.195 112 116.929C112 111.662 108.643 107.393 104.5 107.393Z" fill="#6F58A8"/>
<path d="M101.214 108.391C101.702 107.126 102 105.719 102 104.214C102 98.9473 98.6425 94.6785 94.5 94.6785C93.335 94.6785 92.2362 95.0233 91.2537 95.6273C90.5162 97.5741 89.2775 99.1491 87.7462 100.087C87.35 101.136 87.0987 102.291 87.0275 103.512C88.5425 105.255 89.5 107.768 89.5 110.571C89.5 110.807 89.4775 111.034 89.4625 111.264C89.8137 111.67 90.1975 112.027 90.6037 112.343C91.0575 112.234 91.5212 112.161 92 112.161C93.4375 112.161 94.775 112.683 95.9162 113.575C96.5825 113.413 97.2037 113.109 97.795 112.739C98.5262 110.848 99.7262 109.319 101.214 108.391Z" fill="#9777A8"/>
<path d="M107 91.5C106.032 91.5 105.117 91.7575 104.27 92.1818C103.747 94.8852 102.331 97.1388 100.427 98.3864C100.427 98.3848 100.426 98.3848 100.426 98.3848C101.41 99.9947 102 102.015 102 104.214C102 105.381 101.817 106.487 101.509 107.515C101.631 107.682 101.762 107.836 101.894 107.992C102.706 107.609 103.582 107.393 104.5 107.393C106.479 107.393 108.272 108.373 109.612 109.964C112.465 108.615 114.5 105.133 114.5 101.036C114.5 95.7688 111.142 91.5 107 91.5Z" fill="#583E68"/>
<path d="M117 101.036C116.109 101.036 115.257 101.242 114.465 101.606C114.284 105.451 112.33 108.68 109.612 109.966C109.596 109.945 109.577 109.929 109.56 109.909C111.055 111.652 112 114.146 112 116.929C112 117.165 111.985 117.399 111.972 117.633C113.302 119.165 115.062 120.107 117 120.107C121.142 120.107 124.5 115.838 124.5 110.571C124.5 105.304 121.142 101.036 117 101.036Z" fill="#9777A8"/>
<path d="M119.5 85.1428C119.027 85.1428 118.566 85.2048 118.117 85.3113C117.551 89.1669 115.165 92.2008 112.132 92.9208C112.081 93.2657 112.05 93.6185 112.027 93.9745C113.542 95.7195 114.5 98.2322 114.5 101.036C114.5 101.266 114.471 101.487 114.457 101.714C114.489 101.667 116.116 101.036 117 101.036C118.979 101.036 120.772 102.016 122.112 103.607C124.965 102.258 127 98.7757 127 94.6785C127 89.4116 123.642 85.1428 119.5 85.1428Z" fill="#583E68"/>
<path d="M103.25 64.4821C100.173 64.4821 97.5313 66.8406 96.375 70.2114C96.775 71.378 97 72.6637 97 74.0178C97 75.3718 96.775 76.6576 96.375 77.8241C96.705 78.7872 97.1687 79.655 97.7175 80.421C99.62 80.6514 101.31 81.7894 102.53 83.4851C102.769 83.5138 103.005 83.5535 103.25 83.5535C103.25 78.2866 106.608 74.0178 110.75 74.0178C110.75 68.7509 107.392 64.4821 103.25 64.4821Z" fill="#9777A8"/>
<path d="M89.5 64.4821C85.3575 64.4821 82 68.7509 82 74.0178C82 77.3982 83.3875 80.3606 85.4738 82.0532C86.5875 82.2376 87.6225 82.7302 88.5275 83.4645C88.8463 83.5169 89.17 83.5535 89.5 83.5535C93.6425 83.5535 97 79.2847 97 74.0178C97 68.7509 93.6425 64.4821 89.5 64.4821Z" fill="#6F58A8"/>
<path d="M103.32 84.7932C103.316 84.7869 103.314 84.7789 103.311 84.7726C101.977 82.1296 99.6525 80.375 97 80.375C96.2125 80.375 95.4575 80.5419 94.745 80.8279C93.9187 81.8578 92.9062 82.6461 91.7762 83.1038C91.2062 83.8126 90.7137 84.6216 90.3425 85.5291C91.3775 87.1644 92 89.2384 92 91.5C92 93.0051 91.7137 94.4211 91.225 95.6878C91.2337 95.6671 91.245 95.648 91.2525 95.6274C92.2362 95.0234 93.335 94.6786 94.5 94.6786C96.9137 94.6786 99.055 96.1344 100.428 98.3864C102.844 96.8034 104.5 93.6058 104.5 89.9107C104.5 89.488 104.47 89.0763 104.427 88.6695C103.851 87.5204 103.465 86.2061 103.32 84.7932Z" fill="#6F58A8"/>
<path d="M110.75 74.0178C106.608 74.0178 103.25 78.2866 103.25 83.5535C103.25 86.8879 104.599 89.8185 106.639 91.5238C106.759 91.5159 106.878 91.5 107 91.5C108.52 91.5 109.931 92.0785 111.113 93.0654C115.085 92.8238 118.25 88.6647 118.25 83.5535C118.25 78.2866 114.892 74.0178 110.75 74.0178Z" fill="#6F58A8"/>
<path d="M142 88.3214C133.709 88.3214 127 79.7917 127 69.25C135.291 69.25 142 77.7797 142 88.3214Z" fill="#88C057"/>
<path d="M114.5 77.1964L114.5 74.0178C123.46 74.0178 130.75 62.6099 130.75 48.5892L133.25 48.5892C133.25 64.3629 124.839 77.1964 114.5 77.1964Z" fill="#7A3726"/>
</g>
<g clip-path="url(#clip3)">
<path d="M132.483 91.213C130.418 91.724 128.256 91.724 126.191 91.213C115.435 88.553 106.429 89.573 106.533 109.856C106.586 120.246 116.316 133.718 126.542 131.413C128.376 131 130.297 131 132.131 131.413C142.357 133.718 152.087 120.246 152.14 109.856C152.244 89.574 143.239 88.553 132.483 91.213Z" fill="#D13834"/>
<path d="M111.533 104.674C110.98 104.674 110.533 104.226 110.533 103.674C110.533 98.16 114.57 93.674 119.533 93.674C120.086 93.674 120.533 94.122 120.533 94.674C120.533 95.226 120.086 95.674 119.533 95.674C115.674 95.674 112.533 99.263 112.533 103.674C112.533 104.226 112.085 104.674 111.533 104.674Z" fill="#F75B57"/>
<path d="M129.265 94.9991C128.728 94.9991 128.284 94.5721 128.267 94.0311C128.132 89.7991 126.506 84.4861 122.345 82.2671C121.858 82.0071 121.673 81.4021 121.933 80.9141C122.194 80.4271 122.797 80.2421 123.287 80.5021C128.201 83.1221 130.114 89.1751 130.266 93.9671C130.284 94.5191 129.851 94.9811 129.298 94.9981C129.286 94.9991 129.276 94.9991 129.265 94.9991Z" fill="#4C312C"/>
<path d="M129.176 98.592C127.496 98.592 125.915 97.937 124.726 96.747C124.335 96.357 124.335 95.724 124.726 95.333C125.117 94.942 125.749 94.942 126.14 95.333C126.952 96.145 128.031 96.592 129.176 96.592C130.321 96.592 131.4 96.145 132.211 95.333C132.602 94.942 133.234 94.942 133.625 95.333C134.016 95.723 134.016 96.356 133.625 96.747C132.436 97.937 130.856 98.592 129.176 98.592Z" fill="#994530"/>
<path d="M128.305 88.04L128.914 83.954C129.557 79.639 132.945 76.251 137.26 75.608L141.345 75L140.736 79.086C140.093 83.401 136.705 86.789 132.39 87.432L128.305 88.04Z" fill="#659C35"/>
</g>
<g clip-path="url(#clip4)">
<path d="M50.486 96.899L45.397 96.48L47.281 91.734C47.589 90.959 47.977 90.235 48.42 89.557C45.465 88.257 42.201 87.53 38.765 87.53C25.51 87.53 14.765 98.275 14.765 111.53C14.765 124.785 25.51 135.53 38.765 135.53C52.02 135.53 62.765 124.785 62.765 111.53C62.765 105.471 60.515 99.94 56.811 95.717C54.889 96.643 52.719 97.083 50.486 96.899Z" fill="#ED8F20"/>
<path d="M52.537 104.496C53.6416 104.496 54.537 103.601 54.537 102.496C54.537 101.391 53.6416 100.496 52.537 100.496C51.4324 100.496 50.537 101.391 50.537 102.496C50.537 103.601 51.4324 104.496 52.537 104.496Z" fill="#EF771D"/>
<path d="M57.857 115.651C58.9616 115.651 59.857 114.756 59.857 113.651C59.857 112.546 58.9616 111.651 57.857 111.651C56.7525 111.651 55.857 112.546 55.857 113.651C55.857 114.756 56.7525 115.651 57.857 115.651Z" fill="#EF771D"/>
<path d="M57.537 109.496C58.6416 109.496 59.537 108.601 59.537 107.496C59.537 106.391 58.6416 105.496 57.537 105.496C56.4324 105.496 55.537 106.391 55.537 107.496C55.537 108.601 56.4324 109.496 57.537 109.496Z" fill="#EF771D"/>
<path d="M51.493 113.529C52.5976 113.529 53.493 112.634 53.493 111.529C53.493 110.424 52.5976 109.529 51.493 109.529C50.3884 109.529 49.493 110.424 49.493 111.529C49.493 112.634 50.3884 113.529 51.493 113.529Z" fill="#EF771D"/>
<path d="M52.537 120.496C53.6416 120.496 54.537 119.601 54.537 118.496C54.537 117.391 53.6416 116.496 52.537 116.496C51.4324 116.496 50.537 117.391 50.537 118.496C50.537 119.601 51.4324 120.496 52.537 120.496Z" fill="#EF771D"/>
<path d="M34.537 96.496C35.6416 96.496 36.537 95.6005 36.537 94.496C36.537 93.3914 35.6416 92.496 34.537 92.496C33.4324 92.496 32.537 93.3914 32.537 94.496C32.537 95.6005 33.4324 96.496 34.537 96.496Z" fill="#EF771D"/>
<path d="M27.537 99.496C28.6416 99.496 29.537 98.6005 29.537 97.496C29.537 96.3914 28.6416 95.496 27.537 95.496C26.4324 95.496 25.537 96.3914 25.537 97.496C25.537 98.6005 26.4324 99.496 27.537 99.496Z" fill="#EF771D"/>
<path d="M41.765 95.5291C41.765 95.5291 46.015 96.2291 47.165 99.1291L41.765 95.5291Z" fill="#ED8F20"/>
<path d="M47.165 100.13C46.768 100.13 46.392 99.8911 46.235 99.4981C45.31 97.1671 41.636 96.5221 41.6 96.5161C41.056 96.4241 40.688 95.9101 40.779 95.3651C40.869 94.8221 41.382 94.4531 41.926 94.5431C42.123 94.5751 46.75 95.3741 48.094 98.7611C48.297 99.2741 48.046 99.8561 47.533 100.059C47.413 100.107 47.288 100.13 47.165 100.13Z" fill="#9B6026"/>
<path d="M42.365 98.5289C43.402 97.3889 44.71 96.5039 46.152 95.9619L42.365 98.5289Z" fill="#ED8F20"/>
<path d="M42.364 99.529C42.124 99.529 41.883 99.443 41.691 99.269C41.283 98.897 41.253 98.265 41.625 97.856C42.767 96.601 44.21 95.623 45.801 95.025C46.318 94.833 46.894 95.092 47.089 95.609C47.282 96.126 47.021 96.703 46.504 96.897C45.209 97.383 44.033 98.18 43.104 99.201C42.906 99.419 42.636 99.529 42.364 99.529Z" fill="#9B6026"/>
<path d="M64.765 84.46L59.676 84.041C54.301 83.599 49.27 86.722 47.281 91.734L45.397 96.48L50.486 96.899C55.86 97.341 60.892 94.218 62.881 89.206L64.765 84.46Z" fill="#659C35"/>
<path d="M45.958 95.068L45.397 96.481L46.115 96.54C52.373 90.429 59.174 88.423 59.918 88.376L59.953 87.817L60.366 88.23L60.524 87.637L60.08 87.212C59.482 87.08 52.497 89.009 45.958 95.068Z" fill="#88C057"/>
</g>
<path d="M61.248 165.888H55.224C54.52 165.888 54.024 166.024 53.736 166.296C53.464 166.568 53.328 167.04 53.328 167.712V170.088H59.592L59.352 173.064H53.328V180H49.992V166.392C49.992 165.128 50.264 164.232 50.808 163.704C51.368 163.176 52.32 162.912 53.664 162.912H61.248V165.888ZM71.1803 166.344L70.3163 169.416C70.0763 169.32 69.8043 169.272 69.5003 169.272C68.7003 169.272 67.7163 169.616 66.5483 170.304V180H63.4283V166.296H65.7563L66.4763 167.496L69.7883 166.128C69.9483 166.112 70.1643 166.104 70.4363 166.104C70.7083 166.104 70.9563 166.184 71.1803 166.344ZM83.5078 180H81.1798L80.4598 178.368L76.6198 180.144C75.5478 180.144 74.6118 179.752 73.8118 178.968C73.0278 178.168 72.6358 177.008 72.6358 175.488V166.296H75.7558V174.816C75.7558 176.336 76.3638 177.096 77.5798 177.096L80.3878 175.584V166.296H83.5078V180ZM88.6016 161.064C89.3536 161.064 89.8416 161.184 90.0656 161.424C90.2896 161.648 90.4016 162.136 90.4016 162.888C90.4016 163.624 90.2816 164.112 90.0416 164.352C89.8176 164.576 89.3296 164.688 88.5776 164.688C87.8416 164.688 87.3536 164.568 87.1136 164.328C86.8896 164.088 86.7776 163.6 86.7776 162.864C86.7776 162.128 86.8896 161.648 87.1136 161.424C87.3536 161.184 87.8496 161.064 88.6016 161.064ZM90.1376 180H87.0176V166.8H90.1376V180ZM99.483 180H97.539C96.355 180 95.451 179.648 94.827 178.944C94.219 178.24 93.915 177.4 93.915 176.424V169.224H92.595V166.848H93.915V164.16H97.035V166.848H99.243V169.224H97.035V176.232C97.035 176.984 97.395 177.36 98.115 177.36H99.483V180ZM111.473 176.208V176.568C111.377 177.768 110.865 178.672 109.937 179.28C109.025 179.888 107.881 180.192 106.505 180.192C104.473 180.192 103.049 179.824 102.233 179.088C101.481 178.416 101.104 177.424 101.104 176.112V175.824H103.937C103.937 176.56 104.129 177.064 104.513 177.336C104.897 177.608 105.561 177.744 106.505 177.744C107.785 177.744 108.425 177.28 108.425 176.352C108.425 175.584 108.201 175.072 107.753 174.816C107.545 174.688 107.281 174.592 106.961 174.528L104.537 174.12C102.425 173.784 101.369 172.464 101.369 170.16C101.369 168.88 101.833 167.888 102.761 167.184C103.705 166.464 104.897 166.104 106.337 166.104C109.617 166.104 111.257 167.52 111.257 170.352V170.664H108.545C108.513 169.912 108.313 169.4 107.945 169.128C107.577 168.856 107.057 168.72 106.385 168.72C105.729 168.72 105.233 168.856 104.897 169.128C104.561 169.384 104.393 169.672 104.393 169.992C104.393 170.904 104.761 171.424 105.497 171.552L108.401 172.08C110.449 172.464 111.473 173.84 111.473 176.208Z" fill="black"/>
<defs>
<filter id="filter0_d" x="0" y="108" width="172.824" height="44" filterUnits="userSpaceOnUse" color-interpolation-filters="sRGB">
<feFlood flood-opacity="0" result="BackgroundImageFix"/>
<feColorMatrix in="SourceAlpha" type="matrix" values="0 0 0 0 0 0 0 0 0 0 0 0 0 0 0 0 0 0 127 0"/>
<feOffset dy="4"/>
<feGaussianBlur stdDeviation="2"/>
<feColorMatrix type="matrix" values="0 0 0 0 0 0 0 0 0 0 0 0 0 0 0 0 0 0 0.25 0"/>
<feBlend mode="normal" in2="BackgroundImageFix" result="effect1_dropShadow"/>
<feBlend mode="normal" in="SourceGraphic" in2="effect1_dropShadow" result="shape"/>
</filter>
<clipPath id="clip0">
<rect width="86.097" height="114.886" fill="white" transform="translate(104) rotate(23.0157)"/>
</clipPath>
<clipPath id="clip1">
<rect width="62" height="66" fill="white" transform="translate(46 58)"/>
</clipPath>
<clipPath id="clip2">
<rect width="70" height="89" fill="white" transform="translate(72 47)"/>
</clipPath>
<clipPath id="clip3">
<rect width="56.673" height="56.673" fill="white" transform="translate(104 76)"/>
</clipPath>
<clipPath id="clip4">
<rect width="51.529" height="51.529" fill="white" transform="translate(14 84)"/>
</clipPath>
</defs>
</svg>
