<svg width="128" height="128" viewBox="0 0 128 128" fill="none" xmlns="http://www.w3.org/2000/svg">
<g clip-path="url(#clip0)">
<path d="M97.0869 119.022L84.874 115.574C83.9482 115.313 82.9648 115.723 82.501 116.565L76.3857 127.686C76.1406 128.132 75.4912 128.095 75.293 127.628L69.7978 114.497L56.5674 82.8838L66.3662 59.4756L74.6934 62.96L83.0303 82.8818L97.8125 118.203C98.0078 118.673 97.5742 119.16 97.0869 119.022Z" fill="#FF4A4A"/>
<path d="M83.0303 82.8818L69.7979 114.497L56.5674 82.8838L66.3662 59.4756L74.6924 62.96L83.0303 82.8818Z" fill="#EF3535"/>
<path d="M51.4434 127.686L45.3272 116.566C44.8643 115.724 43.8809 115.312 42.9561 115.574L30.7422 119.022C30.2539 119.16 29.8213 118.672 30.0176 118.203L55.7598 56.6934L78.2774 66.1172L52.5352 127.627C52.3389 128.096 51.6885 128.131 51.4434 127.686V127.686Z" fill="#FF4A4A"/>
<path d="M69.4073 1.97339L76.9209 8.16675C78.2491 9.26147 79.8741 9.93433 81.586 10.0994L91.2784 11.032C95.3936 11.4285 98.6504 14.6853 99.0469 18.8005L99.9805 28.4929C100.146 30.2058 100.818 31.8308 101.913 33.158L108.106 40.6716C110.736 43.8621 110.736 48.4675 108.106 51.658L101.913 59.1716C100.818 60.4988 100.146 62.1238 99.9805 63.8367L99.0469 73.529C98.6504 77.6443 95.3936 80.9011 91.2784 81.2976L81.586 82.2312C79.8731 82.3962 78.2491 83.0691 76.9209 84.1628L69.4073 90.3572C66.2178 92.9861 61.6114 92.9861 58.4209 90.3572L50.9082 84.1628C49.5801 83.0691 47.9551 82.3962 46.2422 82.2312L36.5508 81.2976C32.4356 80.9011 29.1778 77.6443 28.7823 73.529L27.8487 63.8367C27.6836 62.1238 27.0108 60.4988 25.916 59.1716L19.7227 51.658C17.0928 48.4685 17.0928 43.8621 19.7227 40.6716L25.916 33.1589C27.0108 31.8308 27.6836 30.2058 27.8487 28.4929L28.7813 18.8005C29.1778 14.6863 32.4346 11.4285 36.5498 11.033L46.2422 10.0994C47.9551 9.93433 49.5801 9.26147 50.9073 8.16675L58.4209 1.97339C61.6114 -0.656494 66.2178 -0.656494 69.4073 1.97339V1.97339Z" fill="#FFD782"/>
<path d="M92.5146 46.1641C92.5146 61.96 79.71 74.7646 63.9141 74.7646C48.1191 74.7646 35.3145 61.96 35.3145 46.1641C35.3145 30.3691 48.1191 17.5645 63.9141 17.5645C79.71 17.5645 92.5146 30.3691 92.5146 46.1641V46.1641Z" fill="#FF8000"/>
<path d="M63.9141 17.5645C61.4346 17.5645 59.0273 17.8799 56.7324 18.4736C69.0518 21.6592 78.1514 32.8486 78.1514 46.1641C78.1514 59.4795 69.0527 70.6689 56.7324 73.8545C59.0273 74.4482 61.4346 74.7637 63.9141 74.7637C79.71 74.7637 92.5146 61.959 92.5146 46.1641C92.5146 30.3682 79.71 17.5645 63.9141 17.5645V17.5645Z" fill="#FF5F06"/>
<path d="M57.2607 60.6963C56.1934 60.6963 55.1699 60.2725 54.415 59.5176L45.8721 50.9736C44.2998 49.4023 44.2998 46.8535 45.8721 45.2812C47.4434 43.709 49.9922 43.709 51.5645 45.2812L57.2617 50.9785L73.0645 35.1748C74.6367 33.6035 77.1855 33.6035 78.7568 35.1748C80.3291 36.7471 80.3291 39.2959 78.7568 40.8682L60.1074 59.5176C59.3525 60.2725 58.3291 60.6963 57.2607 60.6963Z" fill="white"/>
</g>
<defs>
<clipPath id="clip0">
<rect width="128" height="128" fill="white"/>
</clipPath>
</defs>
</svg>
