<svg width="64" height="64" viewBox="0 0 64 64" fill="none" xmlns="http://www.w3.org/2000/svg">
<g clip-path="url(#clip0)">
<path d="M32.4678 1.56746L36.391 0.0849625C36.8286 -0.0804118 37.3211 -0.0024121 37.6861 0.290087L40.959 2.91245C41.2105 3.11395 41.5268 3.21683 41.8487 3.20158L46.0381 3.00395C46.5055 2.98195 46.9496 3.20833 47.2064 3.59932L49.5089 7.10468C49.6858 7.37406 49.9549 7.56956 50.2658 7.65456L54.3112 8.76105C54.7624 8.88455 55.1149 9.23693 55.2383 9.68818L56.3448 13.7335C56.4298 14.0444 56.6253 14.3135 56.8947 14.4904L60.4 16.7929C60.791 17.0498 61.0174 17.4939 60.9954 17.9613L60.7978 22.1506C60.7826 22.4726 60.8854 22.7889 61.0869 23.0404L63.7093 26.3135C64.0018 26.6786 64.0798 27.171 63.9144 27.6086L62.4319 31.5318C62.318 31.8332 62.318 32.1658 62.4319 32.4673L63.9144 36.3906C64.0798 36.8282 64.0018 37.3207 63.7093 37.6857L61.0869 40.9588C60.8854 41.2103 60.7825 41.5267 60.7978 41.8485L60.9954 46.0379C61.0174 46.5053 60.791 46.9494 60.4 47.2063L56.8947 49.5088C56.6253 49.6856 56.4298 49.9548 56.3448 50.2656L55.2383 54.311C55.1148 54.7622 54.7624 55.1147 54.3112 55.2381L50.2658 56.3446C49.9549 56.4296 49.6858 56.6251 49.5089 56.8945L47.2064 60.3998C46.9496 60.7908 46.5055 61.0172 46.0381 60.9952L41.8487 60.7976C41.527 60.7825 41.2105 60.8852 40.959 61.0867L37.6859 63.7091C37.3207 64.0016 36.8284 64.0796 36.3907 63.9142L32.4675 62.4317C32.1661 62.3178 31.8335 62.3178 31.532 62.4317L27.6088 63.9142C27.1711 64.0796 26.6786 64.0016 26.3137 63.7091L23.0405 61.0867C22.789 60.8852 22.4727 60.7823 22.1508 60.7976L17.9614 60.9952C17.4941 61.0172 17.0499 60.7908 16.7931 60.3998L14.4906 56.8945C14.3137 56.6251 14.0446 56.4296 13.7337 56.3446L9.68834 55.2381C9.2371 55.1146 8.8846 54.7622 8.76122 54.311L7.65473 50.2656C7.56973 49.9548 7.37423 49.6856 7.10485 49.5088L3.59949 47.2062C3.20849 46.9493 2.98212 46.5052 3.00412 46.0378L3.20174 41.8484C3.21699 41.5266 3.11412 41.2102 2.91262 40.9587L0.290755 37.6853C-0.00174367 37.3202 -0.0797434 36.8278 0.085631 36.3902L1.56813 32.467C1.682 32.1656 1.682 31.833 1.56813 31.5315L0.085631 27.6082C-0.0797434 27.1706 -0.00174367 26.6781 0.290755 26.3131L2.91312 23.0402C3.11462 22.7887 3.21749 22.4724 3.20224 22.1505L3.00462 17.9611C2.98262 17.4938 3.20899 17.0496 3.59999 16.7928L7.10535 14.4903C7.37473 14.3134 7.57023 14.0443 7.65523 13.7334L8.76172 9.68805C8.88522 9.2368 9.2376 8.8843 9.68884 8.76093L13.7342 7.65443C14.0451 7.56943 14.3142 7.37393 14.4911 7.10456L16.7936 3.5992C17.0504 3.2082 17.4946 2.98183 17.9619 3.00383L22.1513 3.20145C22.4732 3.2167 22.7895 3.11383 23.041 2.91233L26.3142 0.289962C26.6793 -0.00253712 27.1716 -0.0805368 27.6093 0.0848375L31.5325 1.56733C31.8336 1.68133 32.1664 1.68133 32.4678 1.56746Z" fill="#FFC850"/>
<path d="M41.9873 55.3034C23.6013 55.3034 8.69635 40.3985 8.69635 22.0125C8.69635 17.0883 9.77397 12.4186 11.6927 8.21326L9.68884 8.7615C9.23759 8.885 8.8851 9.23738 8.76172 9.68863L7.6551 13.734C7.5701 14.0449 7.3746 14.314 7.10523 14.491L3.59974 16.7935C3.20874 17.0503 2.98237 17.4945 3.00437 17.9617L3.20199 22.1511C3.21712 22.473 3.11437 22.7893 2.91287 23.0408L0.290755 26.3139C-0.00174367 26.6791 -0.0797434 27.1714 0.085631 27.6089L1.56813 31.5322C1.682 31.8335 1.682 32.1662 1.56813 32.4677L0.085631 36.3909C-0.0797434 36.8285 -0.00174367 37.321 0.290755 37.686L2.91312 40.9591C3.11462 41.2106 3.21749 41.527 3.20224 41.8489L3.00462 46.0382C2.98262 46.5056 3.20899 46.9497 3.59999 47.2066L7.10535 49.5091C7.3746 49.686 7.57023 49.9551 7.65523 50.266L8.76185 54.3113C8.88535 54.7626 9.23772 55.1151 9.68897 55.2386L13.7343 56.3452C14.0452 56.4302 14.3143 56.6257 14.4912 56.8951L16.7937 60.4004C17.0506 60.7914 17.4947 61.0177 17.9621 60.9958L22.1513 60.7982C22.4733 60.7831 22.7897 60.8858 23.0412 61.0873L26.3143 63.7097C26.6794 64.002 27.1718 64.0802 27.6093 63.9148L31.5325 62.4322C31.8339 62.3183 32.1665 62.3183 32.468 62.4322L36.3912 63.9148C36.8289 64.0802 37.3214 64.0022 37.6862 63.7097L40.9593 61.0873C41.2108 60.8859 41.5272 60.7831 41.8492 60.7982L46.0384 60.9958C46.5058 61.0178 46.9499 60.7914 47.2068 60.4004L49.5093 56.8951C49.6862 56.6258 49.9553 56.4302 50.2662 56.3452L54.3115 55.2386C54.7628 55.1151 55.1153 54.7627 55.2387 54.3113L55.7869 52.3075C51.5813 54.226 46.9114 55.3034 41.9873 55.3034Z" fill="#E1A546"/>
<path d="M31.9996 57.5225C46.0956 57.5225 57.5227 46.0954 57.5227 31.9995C57.5227 17.9035 46.0956 6.47644 31.9996 6.47644C17.9037 6.47644 6.47662 17.9035 6.47662 31.9995C6.47662 46.0954 17.9037 57.5225 31.9996 57.5225Z" fill="#FFDC64"/>
<path d="M44.2712 50.2109C44.0515 49.918 43.7093 49.7471 43.3434 49.7351C29.6477 49.2795 18.6835 38.0387 18.6835 24.2321C18.6835 20.54 19.4764 17.0377 20.8923 13.8732C21.3404 12.8715 20.221 11.8753 19.3013 12.474C12.2668 17.0536 7.85493 25.319 8.83105 34.5399C9.9323 44.9423 18.0859 53.4691 28.4287 55.0328C34.1376 55.896 39.4887 54.6446 43.9082 51.991C44.5317 51.6166 44.7074 50.7927 44.2712 50.2109Z" fill="#FFC850"/>
<path d="M24.2321 45.3161H17.5739C16.961 45.3161 16.4642 44.8192 16.4642 44.2064V26.4512C16.4642 25.8383 16.961 25.3414 17.5739 25.3414H24.2321C24.845 25.3414 25.3419 25.8383 25.3419 26.4512V44.2064C25.3419 44.8194 24.845 45.3161 24.2321 45.3161Z" fill="white"/>
<path d="M48.6367 27.8296C48.4922 26.3857 47.1697 25.3415 45.7186 25.3415H36.2724C38.8556 23.2501 40.6096 20.4446 40.8635 18.1374C41.0517 16.4265 39.8687 14.8014 38.1476 14.7854C36.6043 14.7712 35.348 16.0054 35.348 17.5454C35.348 18.5445 33.1795 21.5095 29.1155 22.8287C29.1095 22.8307 29.1038 22.8326 29.0978 22.8346C28.1472 23.1491 27.5613 24.1106 27.5613 25.1119V43.0965C27.5613 43.7094 28.0582 44.2063 28.671 44.2063H42.9841C44.0896 44.2063 45.1143 43.4507 45.2918 42.3594C45.518 40.9689 44.4507 39.7674 43.1029 39.7674H44.094C45.1995 39.7674 46.2242 39.0118 46.4017 37.9206C46.6278 36.5301 45.5606 35.3286 44.2127 35.3286H45.2038C46.3093 35.3286 47.3341 34.5729 47.5116 33.4817C47.7377 32.0912 46.6705 30.8897 45.3226 30.8897H45.8775C47.5035 30.8901 48.803 29.4903 48.6367 27.8296Z" fill="white"/>
<path d="M41.9873 37.5482C41.3744 37.5482 40.8776 38.0451 40.8776 38.658C40.8776 39.2708 41.3744 39.7677 41.9873 39.7677H43.1025H44.0937C45.1992 39.7677 46.2239 39.0121 46.4014 37.9208C46.4219 37.794 46.4207 37.6712 46.4205 37.5482H41.9873Z" fill="#FFFAB4"/>
<path d="M41.9873 33.1095C41.3744 33.1095 40.8776 33.6064 40.8776 34.2192C40.8776 34.8321 41.3744 35.329 41.9873 35.329H44.2123H45.2034C46.3089 35.329 47.3337 34.5734 47.5112 33.4821C47.5317 33.3552 47.5304 33.2325 47.5303 33.1095H41.9873Z" fill="#FFFAB4"/>
<path d="M41.9873 28.6708C41.3744 28.6708 40.8776 29.1676 40.8776 29.7805C40.8776 30.3934 41.3744 30.8903 41.9873 30.8903H45.3219H45.8768C47.2172 30.8903 48.3212 29.9345 48.5803 28.6709H41.9873V28.6708Z" fill="#FFFAB4"/>
<path d="M32.0001 41.9872C30.7743 41.9872 29.7807 40.9936 29.7807 39.7678V26.0939C29.7807 25.6487 30.0471 25.2507 30.4552 25.0732C32.2717 24.2829 37.9875 21.2404 38.5894 15.266C38.4074 15.0755 38.3122 14.976 38.1302 14.7855C36.5948 14.7807 35.3481 16.0113 35.3481 17.5457C35.3481 18.5448 33.1796 21.5098 29.1156 22.829C28.1883 23.1334 27.5613 23.999 27.5613 24.975V43.0969C27.5613 43.7098 28.0582 44.2067 28.6711 44.2067H42.9842C44.2091 44.2067 45.3348 43.2791 45.3186 41.9952C45.3158 41.9922 45.3138 41.9903 45.3109 41.9873H32.0001V41.9872Z" fill="#FFFAB4"/>
<path d="M20.903 43.0968C19.6773 43.0968 18.6837 42.1032 18.6837 40.8775V25.3417H17.5739C16.961 25.3417 16.4642 25.8385 16.4642 26.4514V44.2066C16.4642 44.8195 16.961 45.3163 17.5739 45.3163H24.2321C24.845 45.3163 25.3419 44.8195 25.3419 44.2066V43.0968H20.903Z" fill="#FFFAB4"/>
<path d="M20.9027 42.5415C21.8219 42.5415 22.5671 41.7963 22.5671 40.877C22.5671 39.9577 21.8219 39.2125 20.9027 39.2125C19.9834 39.2125 19.2382 39.9577 19.2382 40.877C19.2382 41.7963 19.9834 42.5415 20.9027 42.5415Z" fill="#FFDC64"/>
</g>
<defs>
<clipPath id="clip0">
<rect width="64" height="64" fill="white"/>
</clipPath>
</defs>
</svg>
