<svg width="236" height="186" viewBox="0 0 236 186" fill="none" xmlns="http://www.w3.org/2000/svg">
<g opacity="0.9" filter="url(#filter0_d)">
<path d="M200.824 120C200.824 129.941 163.927 138 118.412 138C72.897 138 36 129.941 36 120C36 110.059 72.897 102 118.412 102C163.927 102 200.824 110.059 200.824 120Z" fill="black" fill-opacity="0.2"/>
</g>
<g clip-path="url(#clip0)">
<path d="M118.308 30.0045L141.099 55.64H148.484C133.586 36.1599 126.874 30.1414 118.308 30.0045Z" fill="#FFE6B8"/>
<path d="M118.308 30.0044C124.764 30.1893 129.855 36.236 141.099 55.64H87.5187C102.591 35.9269 109.286 30 118 30C118.103 30 118.207 30.0021 118.308 30.0044Z" fill="#FFF3DC"/>
<path d="M129.077 50.6139C130.097 50.6139 130.923 49.8832 130.923 48.9819C130.923 48.0806 130.097 47.35 129.077 47.35C128.057 47.35 127.231 48.0806 127.231 48.9819C127.231 49.8832 128.057 50.6139 129.077 50.6139Z" fill="#FFE6B8"/>
<path d="M124.154 44.0864C125.174 44.0864 126 43.3558 126 42.4545C126 41.5532 125.174 40.8225 124.154 40.8225C123.134 40.8225 122.308 41.5532 122.308 42.4545C122.308 43.3558 123.134 44.0864 124.154 44.0864Z" fill="#FFE6B8"/>
<path d="M106.923 48.8733C107.943 48.8733 108.769 48.1426 108.769 47.2413C108.769 46.34 107.943 45.6094 106.923 45.6094C105.903 45.6094 105.077 46.34 105.077 47.2413C105.077 48.1426 105.903 48.8733 106.923 48.8733Z" fill="#FFE6B8"/>
<path d="M158.866 118.582C161.36 120.786 161.36 124.357 158.866 126.561C156.632 128.536 153.151 128.741 150.66 127.172L141.653 115.749V66.0404L153.961 72.5678L155.662 115.749L158.866 118.582Z" fill="#FEC45E"/>
<path d="M151.482 118.582C153.975 120.786 153.975 124.357 151.482 126.561C151.223 126.79 150.948 126.994 150.66 127.172C150.372 126.994 150.099 126.79 149.84 126.561L148.671 125.528C139.883 127.771 127.923 129 118 129C108.078 129 96.1169 127.771 87.3293 125.528L86.1601 126.561C83.669 128.765 79.6271 128.765 77.1336 126.561C74.64 124.357 74.64 120.786 77.1336 118.582L80.3385 115.749L82.0395 72.5679L114.308 63.8646L146.576 72.5679L148.277 115.749L151.482 118.582Z" fill="#FCDB5A"/>
<path d="M131.538 93.3925C131.031 93.3925 130.547 93.2085 130.198 92.8836L124.768 87.8222L119.338 92.8834C118.99 93.2085 118.505 93.3923 117.999 93.3923C117.492 93.3923 117.008 93.2083 116.659 92.8834L111.23 87.8222L105.801 92.8836C105.452 93.2086 104.968 93.3925 104.461 93.3925C103.954 93.3925 103.47 93.2085 103.121 92.8836L96.3526 86.5737C95.651 85.9196 95.6821 84.8868 96.4219 84.2667C97.1615 83.6464 98.3303 83.6741 99.0318 84.328L104.461 89.3892L109.89 84.328C110.239 84.003 110.723 83.8191 111.23 83.8191C111.736 83.8191 112.221 84.0032 112.569 84.328L117.999 89.3892L123.428 84.328C123.777 84.003 124.261 83.8191 124.768 83.8191C125.274 83.8191 125.758 84.0032 126.107 84.328L131.538 89.3894L136.968 84.328C137.67 83.6739 138.839 83.6468 139.578 84.2669C140.318 84.887 140.349 85.92 139.648 86.5739L132.877 92.8838C132.529 93.2087 132.044 93.3925 131.538 93.3925Z" fill="#FD830C"/>
<path d="M153.96 55.6399H146.576V72.5677H153.96C156.658 72.5677 158.844 70.6357 158.844 68.2531V59.9545C158.844 57.5721 156.658 55.6399 153.96 55.6399Z" fill="#FE9837"/>
<path d="M151.46 59.9546V68.2532C151.46 70.6358 149.274 72.5679 146.576 72.5679H82.0395C79.3416 72.5679 77.1559 70.6358 77.1559 68.2532V59.9546C77.1559 57.5721 79.3416 55.64 82.0395 55.64H146.576C149.274 55.6398 151.46 57.5721 151.46 59.9546Z" fill="#FFAD61"/>
<g clip-path="url(#clip1)">
<path d="M108.644 89.5481C108.237 89.5487 107.862 89.4193 107.658 89.2093C107.345 88.8852 107.024 88.5663 106.695 88.2526C106.362 87.9343 106.525 87.5153 107.058 87.3166C107.591 87.118 108.293 87.215 108.626 87.5333C108.969 87.8605 109.304 88.1931 109.631 88.5312C109.834 88.7409 109.834 88.9991 109.631 89.209C109.428 89.4187 109.054 89.5481 108.648 89.5481H108.644Z" fill="#4C8056"/>
<path d="M112.984 94.991C112.517 94.991 112.098 94.8207 111.927 94.5613C111.799 94.365 111.668 94.1703 111.535 93.9775C111.297 93.6311 111.574 93.235 112.154 93.0928C112.734 92.9502 113.398 93.1159 113.636 93.462C113.773 93.6616 113.907 93.8627 114.041 94.0641C114.179 94.2729 114.135 94.5091 113.924 94.6946C113.712 94.8802 113.36 94.9913 112.984 94.991Z" fill="#4C8056"/>
<path d="M116.392 101.194C115.88 101.194 115.432 100.989 115.297 100.694C115.134 100.335 114.966 99.977 114.793 99.6196C114.628 99.2616 114.975 98.8911 115.572 98.788C116.169 98.6848 116.794 98.8875 116.975 99.2424C117.151 99.6074 117.322 99.9727 117.489 100.339C117.654 100.7 117.298 101.072 116.694 101.171C116.596 101.186 116.494 101.194 116.392 101.194Z" fill="#4C8056"/>
<path d="M118.692 107.175C118.148 107.175 117.68 106.944 117.578 106.625L117.331 105.872C117.237 105.631 117.371 105.378 117.68 105.213C117.99 105.048 118.425 104.996 118.816 105.079C119.207 105.162 119.492 105.365 119.558 105.61L119.808 106.373C119.926 106.74 119.523 107.095 118.908 107.166C118.836 107.173 118.764 107.176 118.692 107.175Z" fill="#4C8056"/>
<path d="M121.296 118.898C120.702 118.899 120.207 118.627 120.16 118.274C119.875 116.118 119.489 113.969 119.012 111.886C118.957 111.646 119.121 111.407 119.441 111.258C119.762 111.11 120.191 111.075 120.567 111.166C120.943 111.258 121.208 111.462 121.263 111.702C121.745 113.812 122.136 115.986 122.424 118.167C122.449 118.346 122.353 118.524 122.159 118.661C121.963 118.798 121.685 118.884 121.384 118.898C121.355 118.898 121.324 118.898 121.296 118.898Z" fill="#4C8056"/>
<path d="M124.38 116.394C122.887 116.108 121.056 117.033 120.29 118.459C119.524 119.885 120.113 121.273 121.606 121.559C123.099 121.845 124.93 120.92 125.697 119.494C126.463 118.068 125.873 116.68 124.38 116.394Z" fill="#E4C05C"/>
<path d="M121.833 108.957C121.485 107.474 119.944 106.377 118.391 106.507C116.838 106.637 115.862 107.945 116.21 109.428C116.558 110.911 118.099 112.008 119.652 111.878C121.205 111.748 122.181 110.44 121.833 108.957Z" fill="#E4C05C"/>
<path d="M120.532 102.63C119.849 101.188 118.072 100.227 116.563 100.482C115.054 100.737 114.385 102.111 115.068 103.552C115.752 104.994 117.529 105.955 119.037 105.7C120.545 105.445 121.215 104.071 120.532 102.63Z" fill="#E4C05C"/>
<path d="M117.008 96.45C116.325 95.0089 114.548 94.0473 113.04 94.3022C111.531 94.557 110.862 95.9321 111.545 97.3732C112.228 98.8142 114.005 99.7758 115.513 99.521C117.022 99.2662 117.692 97.8911 117.008 96.45Z" fill="#E4C05C"/>
<path d="M112.853 90.5704C111.68 89.2466 109.605 88.5282 108.22 88.9658C106.833 89.4031 106.661 90.8313 107.834 92.1552C109.006 93.4794 111.081 94.1978 112.466 93.7601C113.853 93.3225 114.025 91.8946 112.853 90.5704Z" fill="#E4C05C"/>
<path d="M108.362 86.5183C107.638 85.701 106.358 85.2573 105.503 85.5274C104.647 85.7974 104.541 86.6791 105.264 87.4964C105.988 88.3133 107.269 88.7571 108.124 88.487C108.98 88.2169 109.086 87.3352 108.362 86.5183Z" fill="#E4C05C"/>
<path d="M126.814 111.003C125.34 110.683 123.451 111.566 122.595 112.974C121.739 114.381 122.239 115.782 123.713 116.101C125.186 116.421 127.076 115.539 127.932 114.131C128.788 112.723 128.288 111.323 126.814 111.003Z" fill="#E4C05C"/>
<path d="M129.024 105.393C127.551 105.074 125.662 105.956 124.807 107.364C123.951 108.772 124.452 110.172 125.927 110.492C127.4 110.811 129.289 109.928 130.144 108.52C130.999 107.112 130.498 105.712 129.024 105.393Z" fill="#E4C05C"/>
<path d="M133.507 99.6662C132.094 99.2594 130.066 100.023 128.976 101.372C127.886 102.721 128.148 104.145 129.56 104.551C130.972 104.958 133 104.194 134.09 102.845C135.18 101.496 134.919 100.073 133.507 99.6662Z" fill="#E4C05C"/>
<path d="M138.815 93.7052C137.48 93.2135 135.331 93.8486 134.014 95.123C132.697 96.3978 132.711 97.8293 134.045 98.3207C135.379 98.8123 137.529 98.1772 138.846 96.9028C140.163 95.6281 140.149 94.1965 138.815 93.7052Z" fill="#E4C05C"/>
<path d="M145.139 88.7399C143.948 88.1307 141.659 88.5589 140.027 89.696C138.394 90.8331 138.036 92.2488 139.226 92.858C140.417 93.4671 142.705 93.0392 144.338 91.9018C145.971 90.7647 146.329 89.349 145.139 88.7399Z" fill="#E4C05C"/>
<path d="M152.597 85.3967C151.551 84.6994 149.188 84.9448 147.32 85.9445C145.451 86.944 144.785 88.3194 145.832 89.0168C146.878 89.7138 149.241 89.4684 151.109 88.4687C152.977 87.4692 153.643 86.0938 152.597 85.3967Z" fill="#E4C05C"/>
<path d="M145.442 89.6179C144.987 89.6179 144.575 89.4556 144.397 89.2053C144.219 88.9548 144.308 88.6652 144.624 88.4695C144.974 88.2526 145.329 88.0389 145.688 87.8287C145.978 87.6593 146.398 87.5949 146.789 87.6602C147.18 87.7255 147.483 87.9101 147.584 88.1448C147.685 88.3798 147.568 88.6288 147.278 88.7982C146.935 88.999 146.594 89.2023 146.256 89.4086C146.044 89.5413 145.75 89.617 145.442 89.6179Z" fill="#4C8056"/>
<path d="M138.938 94.4281C138.517 94.4281 138.131 94.2893 137.934 94.0668C137.737 93.8446 137.763 93.5755 138 93.3679C138.275 93.1287 138.553 92.891 138.834 92.6547C139.067 92.4536 139.463 92.3428 139.871 92.3651C140.278 92.3871 140.635 92.5385 140.803 92.7616C140.971 92.9843 140.926 93.244 140.684 93.4412C140.411 93.6692 140.142 93.8999 139.878 94.1327C139.666 94.3177 139.314 94.4284 138.938 94.4281Z" fill="#4C8056"/>
<path d="M133.26 100.287C133.087 100.288 132.915 100.264 132.759 100.219C132.197 100.053 131.966 99.6467 132.243 99.311C132.582 98.8993 132.932 98.4892 133.291 98.0806C133.474 97.8596 133.842 97.7153 134.254 97.7034C134.666 97.6911 135.056 97.8132 135.274 98.0223C135.492 98.2313 135.502 98.4944 135.302 98.7095C134.952 99.1084 134.612 99.5085 134.28 99.9104C134.088 100.141 133.693 100.287 133.26 100.287Z" fill="#4C8056"/>
<path d="M129.086 106.093C128.713 106.093 128.365 105.985 128.153 105.802C127.941 105.619 127.891 105.386 128.022 105.178C128.2 104.894 128.381 104.609 128.567 104.324C128.801 103.982 129.452 103.815 130.029 103.949C130.606 104.083 130.897 104.468 130.683 104.815C130.502 105.094 130.324 105.373 130.15 105.652C129.984 105.918 129.56 106.093 129.086 106.093Z" fill="#4C8056"/>
<path d="M126.042 111.619C125.684 111.619 125.347 111.519 125.132 111.348C124.918 111.177 124.85 110.956 124.95 110.751L125.142 110.358C125.319 109.999 125.95 109.794 126.552 109.899C127.153 110.005 127.498 110.382 127.321 110.741L127.131 111.13C126.991 111.42 126.547 111.619 126.042 111.619Z" fill="#4C8056"/>
<path d="M123.748 117.021C123.667 117.021 123.585 117.016 123.506 117.005C122.893 116.926 122.504 116.564 122.638 116.199L122.721 115.975C122.858 115.609 123.466 115.38 124.078 115.462C124.69 115.543 125.075 115.906 124.937 116.272L124.857 116.488C124.743 116.799 124.282 117.021 123.748 117.021Z" fill="#4C8056"/>
<path d="M121.296 125C120.669 125 120.16 124.696 120.16 124.322C120.196 123.327 120.485 122.341 121.016 121.398C121.225 121.045 121.873 120.859 122.465 120.983C123.056 121.108 123.368 121.495 123.159 121.848C122.714 122.647 122.469 123.481 122.431 124.322C122.431 124.696 121.923 125 121.296 125Z" fill="#4C8056"/>
<path d="M121.296 125C120.669 125 120.16 124.696 120.16 124.322C120.16 124.312 120.16 123.317 120.036 121.652C120.009 121.278 120.495 120.961 121.122 120.945C121.75 120.928 122.28 121.219 122.307 121.593C122.431 123.29 122.431 124.281 122.431 124.322C122.431 124.696 121.923 125 121.296 125Z" fill="#4C8056"/>
<path d="M121.296 125C120.799 125 120.36 124.808 120.211 124.525C120.11 124.331 109.91 104.979 94.475 97.7388C93.9945 97.5053 93.9158 97.0848 94.2992 96.7939C94.6821 96.5031 95.3849 96.4491 95.8787 96.6731C111.87 104.172 121.959 123.31 122.38 124.119C122.566 124.476 122.231 124.856 121.632 124.967C121.523 124.988 121.41 124.999 121.296 125Z" fill="#24AE5F"/>
</g>
</g>
<path d="M110.928 177H107.064L103.728 170.664H101.328V177H97.992V163.584C97.992 162.304 98.288 161.376 98.88 160.8C99.472 160.208 100.464 159.912 101.856 159.912H104.688C106.384 159.912 107.728 160.432 108.72 161.472C109.728 162.496 110.232 163.8 110.232 165.384C110.232 166.536 109.928 167.536 109.32 168.384C108.728 169.216 107.992 169.792 107.112 170.112L110.928 177ZM104.472 167.88C105.176 167.88 105.752 167.64 106.2 167.16C106.664 166.664 106.896 166.056 106.896 165.336C106.896 164.6 106.672 164.008 106.224 163.56C105.792 163.112 105.208 162.888 104.472 162.888H102.816C101.824 162.888 101.328 163.392 101.328 164.4V167.88H104.472ZM115.039 158.064C115.791 158.064 116.279 158.184 116.503 158.424C116.727 158.648 116.839 159.136 116.839 159.888C116.839 160.624 116.719 161.112 116.479 161.352C116.255 161.576 115.767 161.688 115.015 161.688C114.279 161.688 113.791 161.568 113.551 161.328C113.327 161.088 113.215 160.6 113.215 159.864C113.215 159.128 113.327 158.648 113.551 158.424C113.791 158.184 114.287 158.064 115.039 158.064ZM116.575 177H113.455V163.8H116.575V177ZM127.073 171.984L129.905 171.96C129.889 172.088 129.873 172.32 129.857 172.656C129.841 172.992 129.825 173.224 129.809 173.352C129.809 173.464 129.793 173.648 129.761 173.904C129.729 174.16 129.689 174.352 129.641 174.48C129.609 174.592 129.561 174.744 129.497 174.936C129.209 175.768 128.425 176.424 127.145 176.904C126.329 177.192 125.473 177.336 124.577 177.336C123.697 177.336 122.897 177.192 122.177 176.904C121.457 176.616 120.889 176.248 120.473 175.8C119.529 174.808 119.057 172.952 119.057 170.232C119.057 167.496 119.529 165.632 120.473 164.64C120.889 164.192 121.457 163.824 122.177 163.536C122.897 163.248 123.697 163.104 124.577 163.104C126.305 163.104 127.617 163.536 128.513 164.4C129.409 165.264 129.857 166.464 129.857 168H127.025C127.025 167.296 126.849 166.776 126.497 166.44C126.145 166.088 125.489 165.912 124.529 165.912C123.585 165.912 122.953 166.208 122.633 166.8C122.329 167.392 122.177 168.28 122.177 169.464V170.712C122.177 172.616 122.545 173.784 123.281 174.216C123.617 174.424 124.057 174.528 124.601 174.528C125.145 174.528 125.585 174.48 125.921 174.384C126.273 174.272 126.521 174.088 126.665 173.832C126.825 173.576 126.929 173.328 126.977 173.088C127.025 172.832 127.057 172.464 127.073 171.984ZM142.782 170.88H134.79C134.79 172.128 134.982 173.04 135.366 173.616C135.766 174.192 136.558 174.48 137.742 174.48C138.51 174.48 139.078 174.24 139.446 173.76C139.814 173.264 139.998 172.792 139.998 172.344H142.806C142.806 174.056 142.342 175.312 141.414 176.112C140.502 176.912 139.286 177.312 137.766 177.312C136.262 177.312 135.094 177.096 134.262 176.664C132.55 175.784 131.694 173.448 131.694 169.656C131.694 167.4 132.182 165.752 133.158 164.712C134.134 163.656 135.622 163.128 137.622 163.128C141.094 163.128 142.83 165.056 142.83 168.912C142.83 169.328 142.814 169.984 142.782 170.88ZM134.862 168.744H139.998C139.998 167.688 139.798 166.92 139.398 166.44C138.998 165.96 138.382 165.72 137.55 165.72C136.734 165.72 136.078 165.968 135.582 166.464C135.102 166.944 134.862 167.704 134.862 168.744Z" fill="black"/>
<defs>
<filter id="filter0_d" x="32" y="102" width="172.824" height="44" filterUnits="userSpaceOnUse" color-interpolation-filters="sRGB">
<feFlood flood-opacity="0" result="BackgroundImageFix"/>
<feColorMatrix in="SourceAlpha" type="matrix" values="0 0 0 0 0 0 0 0 0 0 0 0 0 0 0 0 0 0 127 0"/>
<feOffset dy="4"/>
<feGaussianBlur stdDeviation="2"/>
<feColorMatrix type="matrix" values="0 0 0 0 0 0 0 0 0 0 0 0 0 0 0 0 0 0 0.25 0"/>
<feBlend mode="normal" in2="BackgroundImageFix" result="effect1_dropShadow"/>
<feBlend mode="normal" in="SourceGraphic" in2="effect1_dropShadow" result="shape"/>
</filter>
<clipPath id="clip0">
<rect width="112" height="99" fill="white" transform="translate(62 30)"/>
</clipPath>
<clipPath id="clip1">
<rect width="67" height="40" fill="white" transform="translate(90 85)"/>
</clipPath>
</defs>
</svg>
