<svg width="32" height="32" viewBox="0 0 32 32" fill="none" xmlns="http://www.w3.org/2000/svg">
<path d="M31.3326 6.11503C30.757 5.41375 29.8837 5.02342 28.9774 5.02342H9.30848C8.74613 5.02342 8.21025 5.1822 7.74714 5.46668L6.74154 1.95367C6.57614 1.37809 6.05349 0.98114 5.45806 0.98114H3.92981H1.01222C0.456493 0.98114 0 1.43102 0 1.99336V2.09922C0 2.65495 0.449877 3.11144 1.01222 3.11144H4.83618L6.78785 10.0118L9.47388 19.5319C7.94562 19.9157 6.81431 21.2984 6.81431 22.9391C6.81431 24.7981 8.26318 26.3264 10.0958 26.4455C9.9436 26.8821 9.87083 27.3651 9.91052 27.8613C10.0428 29.5417 11.4123 30.8979 13.0927 31.0104C15.0973 31.1494 16.7711 29.5549 16.7711 27.5834C16.7711 27.1865 16.705 26.8094 16.5793 26.4521H20.6017C20.4363 26.9218 20.3702 27.4445 20.4297 27.9804C20.6149 29.6079 21.958 30.8913 23.5987 31.0104C25.6033 31.1494 27.2837 29.5616 27.2837 27.5834C27.2837 25.6714 25.6959 24.1432 23.7905 24.1432H10.3538C9.69881 24.1432 9.14308 23.6338 9.11662 22.9854C9.09016 22.2974 9.63927 21.735 10.3207 21.735H12.3385H23.2745H26.3509C27.7137 21.735 28.9046 20.8022 29.2354 19.479L31.9082 8.72167C32.1397 7.79545 31.928 6.84939 31.3326 6.11503ZM23.8501 26.4455C24.472 26.4455 24.9814 26.9549 24.9814 27.5768C24.9814 28.1987 24.472 28.7081 23.8501 28.7081C23.2282 28.7081 22.7188 28.1987 22.7188 27.5768C22.7188 26.9549 23.2216 26.4455 23.8501 26.4455ZM13.3375 26.4455C13.9594 26.4455 14.4688 26.9549 14.4688 27.5768C14.4688 28.1987 13.9594 28.7081 13.3375 28.7081C12.7156 28.7081 12.2062 28.1987 12.2062 27.5768C12.2062 26.9549 12.709 26.4455 13.3375 26.4455ZM9.18278 9.99852L8.66674 8.17917C8.58735 7.9013 8.69982 7.69621 8.77921 7.59698C8.85199 7.49774 9.024 7.33234 9.30848 7.33234H11.4652L12.0541 10.0051H9.18278V9.99852ZM9.83113 12.3008H12.5569L13.0994 14.7752H10.5258L9.83113 12.3008ZM12.3385 19.4195C12.0408 19.4195 11.7762 19.221 11.6968 18.9299L11.1741 17.0775H13.6022L14.1182 19.4129H12.3385V19.4195ZM18.1009 19.4195H16.4734L15.9574 17.0841H18.0943V19.4195H18.1009ZM18.1009 14.7752H15.4546L14.9121 12.3008H18.1009V14.7752ZM18.1009 9.99852H14.4093L13.8205 7.32573H18.1009V9.99852ZM22.2292 19.4195H20.4099V17.0841H22.7188L22.2292 19.4195ZM23.2083 14.7752H20.4099V12.3008H23.731L23.2083 14.7752ZM20.4099 9.99852V7.32573H24.7763L24.214 9.99852H20.4099ZM27.0058 18.9167C26.9331 19.2144 26.6684 19.4261 26.3575 19.4261H24.5844L25.0806 17.0907H27.4623L27.0058 18.9167ZM28.0313 14.7752H25.5636L26.0862 12.3008H28.6466L28.0313 14.7752ZM29.672 8.15271L29.2155 9.99191H26.5692L27.1315 7.31911H29.0237C29.3082 7.31911 29.4735 7.47789 29.5463 7.57713C29.6257 7.67637 29.7448 7.88146 29.672 8.15271Z" fill="#6DCC84"/>
</svg>
