<svg width="128" height="128" viewBox="0 0 128 128" fill="none" xmlns="http://www.w3.org/2000/svg">
<g clip-path="url(#clip0)">
<path d="M112.573 72.2544L110.344 86.0695C110.344 86.0695 82.4825 108.276 72.8274 108.138H55.1724C43.7242 107.724 16.5523 80.5523 16.5523 80.5523L15.5813 72.8281C13.4186 38.776 36.6791 26.9694 37.6281 26.4839H37.6501C41.8395 24.0012 50.3912 24.461 52.9436 26.4397L52.9656 26.4839C57.0791 28.7317 60.7325 31.7339 63.7353 35.3336H64.3973C67.4122 31.7551 71.0542 28.7562 75.1446 26.4839C80.1896 25.3882 85.4093 25.3732 90.4602 26.4397L90.4822 26.4839C90.4825 26.4839 114.493 37.9375 112.573 72.2544Z" fill="#D75E72"/>
<path d="M50.7587 48.5527C50.7457 52.0231 52.1109 55.3568 54.5544 57.8216C52.2372 59.543 44.138 66.8477 44.138 83.8628L43.9615 84.0835C42.815 83.1185 41.4975 82.3773 40.0773 81.8988C35.9363 80.2206 32.0916 77.8883 28.6899 74.9914C28.0057 74.4396 27.3437 73.9099 26.7257 73.3804C23.592 70.7322 18.9355 72.1446 16.0443 75.0356L16.5518 80.5528L15.5808 72.8286C13.4181 38.7765 36.6786 26.9699 37.6276 26.4844H37.6496C39.9148 27.9359 42.551 28.7024 45.2412 28.6914C47.9717 28.6979 50.6459 27.9164 52.9431 26.4404L52.9651 26.4847C57.0786 28.7324 60.7321 31.7346 63.7348 35.3343C56.5299 35.4668 50.7587 41.346 50.7587 48.5527Z" fill="#46B29D"/>
<path d="M59.5863 14.3455C59.5766 22.2637 53.1599 28.6804 45.2417 28.6901C42.5445 28.7011 39.9013 27.9349 37.6281 26.4831C31.7896 22.8197 29.3842 15.5203 31.9009 9.10359C34.4174 2.68692 41.1438 -1.03129 47.9159 0.250945C54.6881 1.53318 59.5896 7.45286 59.5863 14.3455Z" fill="#FDD7AD"/>
<path d="M97.1031 14.3455C97.0934 22.2637 90.6767 28.6804 82.7585 28.6901C80.0613 28.7011 77.4181 27.9349 75.1449 26.4831C69.3064 22.8197 66.901 15.5203 69.4177 9.10359C71.9344 2.68692 78.6606 -1.03129 85.4327 0.250945C92.2049 1.53318 97.1064 7.45286 97.1031 14.3455Z" fill="#FDD7AD"/>
<path d="M84.0382 84.0832C83.1305 84.8032 82.3088 85.6252 81.5885 86.533C78.7041 90.2797 77.1718 94.8919 77.2411 99.6198V105.931H75.0341C73.8169 105.935 72.8309 106.921 72.8271 108.138H55.1721C55.1683 106.921 54.1826 105.935 52.9651 105.931H50.7581V99.6198C50.8274 94.8919 49.2952 90.2797 46.4107 86.533C45.6907 85.6252 44.8687 84.8035 43.961 84.0832L44.1375 83.8625C44.1375 66.8474 52.2366 59.5428 54.5538 57.8213C57.0401 60.3618 60.4448 61.7937 63.9992 61.7937C67.5537 61.7937 70.9586 60.3618 73.4446 57.8213C75.7616 59.5428 83.861 66.8474 83.861 83.8625L84.0382 84.0832Z" fill="#F0C419"/>
<path d="M77.2411 48.5528C77.2518 55.8337 71.3819 61.7574 64.101 61.8132C56.8201 61.8689 50.8604 56.0357 50.7599 48.7553C50.6592 41.4749 56.4556 35.4792 63.735 35.3337C63.822 35.3155 63.911 35.308 63.9997 35.3117C64.1325 35.308 64.2655 35.3155 64.397 35.3337C71.5497 35.5397 77.2408 41.3974 77.2411 48.5528Z" fill="#FDD7AD"/>
<path d="M28.6879 79.4488C27.6102 79.4476 26.6909 78.6681 26.5134 77.6051C24.2267 63.8833 30.7947 48.3382 31.0759 47.683C31.5589 46.5675 32.8529 46.0527 33.9701 46.5315C35.0874 47.0102 35.6073 48.302 35.1331 49.4212C35.0696 49.57 28.7959 64.45 30.8669 76.8789C30.9737 77.5191 30.7929 78.1739 30.3732 78.6691C29.9534 79.1641 29.3369 79.4493 28.6879 79.4488Z" fill="#527F72"/>
<path d="M99.3121 79.4488C98.6631 79.4493 98.0466 79.1641 97.6269 78.6688C97.2072 78.1738 97.0267 77.5189 97.1332 76.8786C99.2096 64.4198 92.9317 49.5707 92.8682 49.4219C92.5575 48.6974 92.657 47.8622 93.1292 47.2307C93.6014 46.5995 94.3744 46.268 95.1572 46.3612C95.9399 46.4545 96.6137 46.9582 96.9242 47.6827C97.2054 48.338 103.773 63.883 101.487 77.6049C101.309 78.6681 100.39 79.4473 99.3121 79.4488Z" fill="#802D40"/>
<path d="M48.5519 99.3106C47.3332 99.3106 46.345 98.3226 46.345 97.1036C46.345 96.4991 46.4257 82.1976 53.4676 73.6329C53.9681 73.0224 54.7564 72.7254 55.5354 72.8544C56.3141 72.9834 56.9648 73.5184 57.2418 74.2576C57.5188 74.9969 57.3796 75.8279 56.8773 76.4366C50.8289 83.792 50.7589 96.9709 50.7589 97.1034C50.7587 98.3226 49.7707 99.3106 48.5519 99.3106Z" fill="#F29C1F"/>
<path d="M79.4481 99.3095C78.2306 99.3095 77.2431 98.3235 77.2411 97.1058C77.2411 96.9733 77.1516 83.7687 71.1227 76.4368C70.3509 75.495 70.4877 74.1063 71.4279 73.3331C72.3681 72.5598 73.7571 72.6938 74.5321 73.6328C81.574 82.1975 81.6548 96.4988 81.6548 97.1035C81.6545 98.3213 80.6678 99.3085 79.4501 99.3093H79.4481V99.3095Z" fill="#F29C1F"/>
<path d="M50.7587 99.6196V105.931L51.3792 108.724L29.3337 109.241L29.3962 105.931L13.4406 89.9757C11.6189 88.1712 10.1451 86.0465 9.09315 83.7082L0.442003 64.6847C0.149256 64.0557 -0.00149205 63.3702 0.000507924 62.6765C0.00700785 60.01 2.16698 57.85 4.83345 57.8435C6.76918 57.8363 8.51916 58.9943 9.26915 60.7788L14.2126 72.2986C14.3451 72.6074 14.4996 72.9386 14.6541 73.2476C14.7496 73.4864 14.8678 73.7156 15.0071 73.9319C15.0071 73.9761 15.0291 73.9981 15.0513 74.0421C15.0956 74.1304 15.1616 74.2406 15.2058 74.3291L16.0443 73.8876V73.8656C16.8423 73.0631 17.8065 72.4454 18.869 72.0559C21.5333 71.0294 24.545 71.5371 26.7254 73.3801C27.3434 73.9099 28.0054 74.4393 28.6897 74.9911C32.0914 77.8883 35.9361 80.2203 40.077 81.8985C41.497 82.3773 42.8148 83.1182 43.9612 84.0832C44.869 84.8032 45.6907 85.6252 46.411 86.533C49.2957 90.2794 50.8279 94.8916 50.7587 99.6196Z" fill="#FDD7AD"/>
<path d="M127.999 62.6765C128.001 63.3702 127.851 64.056 127.558 64.6847L118.907 83.708C117.855 86.0465 116.381 88.1709 114.559 89.9754L98.6038 105.931L98.5388 109.929L77.0573 109.241L77.2413 105.931V99.6196C77.1721 94.8916 78.7043 90.2794 81.5888 86.5327C82.3088 85.625 83.1308 84.8032 84.0385 84.083C85.185 83.118 86.5025 82.3768 87.9227 81.8983C92.0637 80.22 95.9084 77.8878 99.3101 74.9908C99.9943 74.4391 100.656 73.9094 101.274 73.3799C104.422 70.7476 109.059 70.9586 111.956 73.8654V73.8874L112.794 74.3288C112.993 73.9536 113.191 73.5786 113.368 73.2034C113.522 72.9164 113.655 72.6076 113.787 72.2986L118.731 60.7788C119.481 58.9943 121.231 57.8363 123.166 57.8435C125.833 57.85 127.993 60.01 127.999 62.6765Z" fill="#FDD7AD"/>
<path d="M30.2569 87.6362C29.3867 88.4897 27.9934 88.4897 27.1232 87.6362L18.9358 79.4266C17.4453 77.9641 16.1876 76.2821 15.2061 74.4391C15.1356 74.3149 15.0836 74.1811 15.0516 74.0419C15.0958 74.1301 15.1618 74.2404 15.2061 74.3289L16.0446 73.8874V73.8654C16.8426 73.0629 17.8068 72.4452 18.8693 72.0557C18.955 72.1494 19.0293 72.2532 19.09 72.3647C19.8778 73.8186 20.8743 75.1494 22.0472 76.3149L30.2569 84.5023C31.1176 85.3698 31.1176 86.769 30.2569 87.6362Z" fill="#FAC176"/>
<path d="M97.7483 87.6362C98.6186 88.4897 100.012 88.4897 100.882 87.6362L109.069 79.4266C110.56 77.9641 111.818 76.2821 112.799 74.4391C112.87 74.3149 112.922 74.1811 112.954 74.0419C112.909 74.1301 112.843 74.2404 112.799 74.3289L111.961 73.8874V73.8654C111.163 73.0629 110.198 72.4452 109.136 72.0557C109.05 72.1494 108.976 72.2532 108.915 72.3647C108.127 73.8186 107.131 75.1494 105.958 76.3149L97.7483 84.5023C96.8878 85.3698 96.8878 86.769 97.7483 87.6362Z" fill="#FAC176"/>
<path d="M28.6899 105.931H52.9654C54.1841 105.931 55.1724 106.919 55.1724 108.138V125.793C55.1724 127.012 54.1844 128 52.9654 128H28.6899C27.4712 128 26.483 127.012 26.483 125.793V108.138C26.4832 106.919 27.4712 105.931 28.6899 105.931Z" fill="#4482C3"/>
<path d="M48.5519 119.172H46.3449C45.1262 119.172 44.138 118.184 44.138 116.965C44.138 115.746 45.126 114.758 46.3449 114.758H48.5519C49.7707 114.758 50.7589 115.746 50.7589 116.965C50.7589 118.184 49.7707 119.172 48.5519 119.172Z" fill="#285680"/>
<path d="M75.0344 105.931H99.3098C100.529 105.931 101.517 106.919 101.517 108.138V125.793C101.517 127.012 100.529 128 99.3098 128H75.0344C73.8156 128 72.8274 127.012 72.8274 125.793V108.138C72.8274 106.919 73.8154 105.931 75.0344 105.931Z" fill="#4482C3"/>
<path d="M81.655 119.172H79.4481C78.2293 119.172 77.2411 118.184 77.2411 116.965C77.2411 115.746 78.2291 114.758 79.4481 114.758H81.655C82.8738 114.758 83.862 115.746 83.862 116.965C83.862 118.184 82.8738 119.172 81.655 119.172Z" fill="#285680"/>
</g>
<defs>
<clipPath id="clip0">
<rect width="128" height="128" fill="white"/>
</clipPath>
</defs>
</svg>
