<svg width="24" height="24" viewBox="0 0 24 24" fill="none" xmlns="http://www.w3.org/2000/svg">
<g clip-path="url(#clip0)">
<path d="M8.95364 26.2031C7.9158 26.2031 6.84757 26.1004 5.77293 25.8946C3.88017 25.5317 1.96416 24.3221 1.42199 23.9598L0 23.0099L1.53954 22.3913C3.22246 21.7152 4.2462 21.2957 5.51347 20.6389C4.24455 19.8881 3.26659 18.5374 2.79583 16.7915L2.43767 15.463L2.73137 15.5178C2.45287 15.1749 2.23296 14.8267 2.06249 14.5102C1.45623 13.3851 1.13525 12.0103 1.20355 10.8321L1.27093 9.67258L1.8391 9.94149C1.59942 9.38845 1.4262 8.79782 1.3244 8.17877C1.07629 6.66908 1.28393 5.0652 1.90923 3.66267L2.40417 2.55255L3.06609 3.52396C5.15953 6.59659 7.81107 8.41927 10.9581 8.95286C10.8295 7.87025 10.9259 6.82546 11.2446 5.88895C11.6158 4.79852 12.2761 3.87387 13.1535 3.21477C14.128 2.48297 15.3098 2.12837 16.4811 2.21629C17.7238 2.30958 18.8521 2.87852 19.7482 3.86268C20.1858 3.72375 20.5083 3.57542 20.9441 3.37496C21.2063 3.25437 21.5036 3.11745 21.8757 2.96085L23.2468 2.38364L22.3527 5.5037C22.4117 5.49766 22.4724 5.49251 22.536 5.48916L24.0001 5.40817L23.1347 6.8532C23.0851 6.93598 23.0725 6.95947 23.0549 6.99191C22.9851 7.12033 22.8983 7.28007 21.7105 9.21797C21.4132 9.70323 21.2647 10.3352 21.2923 10.9979C21.3976 13.5162 21.1448 15.7946 20.5403 17.7696C19.9687 19.6382 19.0828 21.2414 17.9076 22.5347C16.4534 24.1348 14.5991 25.2304 12.396 25.7906C11.3153 26.0653 10.1548 26.2031 8.95364 26.2031Z" fill="black"/>
</g>
<defs>
<clipPath id="clip0">
<rect width="24" height="24" fill="white"/>
</clipPath>
</defs>
</svg>
