<svg width="192" height="153" viewBox="0 0 192 153" fill="none" xmlns="http://www.w3.org/2000/svg">
<g opacity="0.9" filter="url(#filter0_d)">
<path d="M176.824 91C176.824 100.941 139.927 109 94.4118 109C48.897 109 12 100.941 12 91C12 81.0589 48.897 73 94.4118 73C139.927 73 176.824 81.0589 176.824 91Z" fill="black" fill-opacity="0.2"/>
</g>
<g clip-path="url(#clip0)">
<path d="M137.973 77.3435C154.125 64.4733 158.858 44.1105 148.534 27.7666C147.617 26.3157 147.245 24.6434 147.803 23.0751C148.195 21.9731 148.911 20.8526 150.224 20.3142C150.224 20.3142 146.31 14.4435 137.973 21.9915C137.973 21.9915 122.488 31.9163 137.973 48.8288C137.973 48.8288 145.757 54.7515 140.015 70.6342L137.973 77.3435Z" fill="#659C35"/>
<path d="M137.973 77.3427L140.015 70.6334C145.757 54.7507 137.973 48.828 137.973 48.828C122.488 31.9155 137.973 21.9907 137.973 21.9907C139.265 20.82 140.439 20.0031 141.522 19.406C132.167 10.709 118.498 5.21741 103.259 5.21741C100.221 5.21741 97.2476 5.44888 94.3562 5.86653C91.6996 1.01066 86.9234 1.86274 86.9234 1.86274C82.8231 1.86274 82.0839 7.01383 81.9492 9.04675C76.3338 11.1686 71.2656 14.0972 66.9734 17.6599C64.6966 19.3674 62.5872 21.2292 60.7086 23.2454C60.8965 23.2672 61.0864 23.289 61.2701 23.3074C44.8507 21.3148 42.3983 26.8332 42.043 28.3847C41.9899 28.6128 41.9858 28.846 42.0205 29.0775C42.5657 32.8045 45.6879 34.8106 47.7156 35.7348C48.7488 36.2061 49.2327 37.1874 48.9918 38.1401C39.1577 76.9737 96.4308 105.654 133.615 81.0496C133.852 80.8919 134.032 80.7057 134.185 80.5078C135.4 79.7463 138.158 77.1951 137.973 77.3427Z" fill="#A4E869"/>
<path d="M62.1624 23.4106C62.238 23.4206 62.3033 23.4307 62.3768 23.4458C63.7756 23.7142 77.8039 26.7988 82.5596 43.0538C82.5596 43.0538 83.5439 50.1372 92.8818 51.7323C93.2861 51.8011 93.6986 51.7189 94.1111 51.6988C100.114 51.3952 113.344 48.2955 113.22 60.857C113.22 60.857 108.636 77.8048 131.824 77.1037C132.337 77.0886 132.859 77.1875 133.301 77.4039C133.335 77.4207 133.358 77.4442 133.39 77.4609C144.858 51.6048 119.595 48.8289 119.595 48.8289C119.595 48.8289 90.4968 47.7805 95.0912 23.6689C99.6856 -0.442781 86.9233 1.86355 86.9233 1.86355C81.8184 1.86355 81.9205 9.86275 81.9205 9.86275C73.528 12.6622 66.2035 17.352 60.7106 23.2462C61.1945 23.3032 61.6519 23.3418 62.1624 23.4106Z" fill="#88C057"/>
<path d="M133.615 81.0504C96.4308 105.655 39.1576 76.9745 48.9938 38.1425C49.2347 37.1898 48.7528 36.2086 47.7176 35.7372C45.6899 34.813 42.5677 32.8069 42.0225 29.0799C41.9878 28.8484 41.9939 28.617 42.045 28.3872C42.4064 26.8071 44.9098 21.0925 62.1624 23.4089C62.238 23.4189 62.3033 23.429 62.3769 23.4424C63.7756 23.7108 77.8039 26.7954 82.5597 43.0504C82.5597 43.0504 83.5439 50.1338 92.8818 51.7289C93.2861 51.7977 93.6986 51.7155 94.1111 51.6954C100.114 51.3918 113.344 48.2921 113.22 60.8536C113.22 60.8536 108.636 77.8014 131.824 77.1003C132.337 77.0852 132.86 77.1841 133.301 77.4005C134.92 78.1922 135.081 80.0792 133.615 81.0504Z" fill="#659C35"/>
</g>
<g clip-path="url(#clip1)">
<path d="M152.571 83.6724C152.571 83.6724 170.834 86.5504 171.912 102.503C171.912 102.503 172.424 106.327 169.183 107.212C165.995 108.08 162.676 104.919 162.505 101.356C162.351 98.1411 160.286 92.6691 152.571 83.6724Z" fill="#88C057"/>
<path d="M152.571 83.6725C152.571 83.6725 169.085 78.1612 163.838 63.7778C163.838 63.7778 162.46 58.5561 158.685 57.2381C155.173 56.0115 152.48 59.4734 154.108 62.7536C155.892 66.3488 157.111 72.9189 152.571 83.6725Z" fill="#88C057"/>
<path d="M171.19 102.897C171.19 102.897 171.201 103.031 171.211 103.213C171.646 103.2 172.085 103.163 172.529 103.069C176.62 102.202 176.294 98.932 176.294 98.932C176.247 85.2594 153.833 83.3899 153.833 83.3899C154.536 83.984 155.182 84.5557 155.803 85.1145C161.236 86.9593 170.434 91.7128 171.19 102.897Z" fill="#88C057"/>
<path d="M163.839 63.7785C167.888 74.8734 158.989 80.6862 154.708 82.7652C154.654 82.844 154.609 82.9175 154.556 82.9963C154.556 82.9963 175.478 77.7134 170.134 65.5277C170.134 65.5277 168.847 61.0857 164.273 60.0787C163.487 59.9056 162.724 59.871 162.013 59.9432C163.309 61.7792 163.839 63.7785 163.839 63.7785Z" fill="#A4E869"/>
<path d="M181.056 80.4437C178.836 75.3275 171.407 75.0249 171.407 75.0249C169.945 75.284 168.508 75.6653 167.11 76.1148C163.168 79.9923 156.419 82.3305 153.231 83.2683C152.916 83.4939 152.643 83.6937 152.448 83.8392C155.127 84.1164 162.76 85.1528 168.65 88.3357C170.546 88.5428 172.437 88.6277 174.22 88.5188C183.772 87.9365 181.056 80.4437 181.056 80.4437Z" fill="#659C35"/>
<path d="M152.571 83.6724C152.571 83.6724 170.834 86.5504 171.912 102.503C171.912 102.503 172.424 106.327 169.183 107.212C165.995 108.08 162.676 104.919 162.505 101.356C162.351 98.1411 160.286 92.6691 152.571 83.6724Z" fill="#A4E869"/>
<path d="M154.083 83.1761C153.4 83.4692 152.979 83.6102 152.979 83.6102C152.979 83.6102 153.671 83.7206 154.784 84.0114C154.557 83.7368 154.327 83.4616 154.083 83.1761Z" fill="#F2681C"/>
<path d="M156.309 94.4706C157.58 93.6991 158.368 92.5831 158.857 91.3425C157.412 89.1105 155.503 86.5517 152.979 83.6102C154.474 80.0678 155.337 76.9891 155.768 74.3118C154.7 72.8527 153.297 71.5723 151.4 70.9186C145.445 68.8676 104.184 80.0978 93.2185 86.5611C92.1871 87.1692 92.4543 88.4467 93.6977 88.8597C106.927 93.2577 151.404 97.4477 156.309 94.4706Z" fill="#ED8F20"/>
<path d="M107.556 85.3965C107.065 84.5591 106.645 83.6698 106.305 82.7533C106.061 82.0908 105.327 81.6882 104.668 81.8495C104.009 82.0108 103.672 82.677 103.916 83.3368C104.31 84.4023 104.8 85.4384 105.373 86.4144C105.475 86.5868 105.608 86.7334 105.763 86.8482C106.159 87.1436 106.688 87.2292 107.123 87.027C107.724 86.7452 107.92 86.0143 107.556 85.3965Z" fill="#DD7017"/>
<path d="M153.811 91.9464C152.182 89.5905 151.146 86.7648 150.735 83.5494C150.648 82.8691 150.011 82.3231 149.312 82.3289C148.613 82.3347 148.118 82.8908 148.205 83.5711C148.671 87.203 149.86 90.4244 151.741 93.1454C151.834 93.2795 151.946 93.3953 152.073 93.4895C152.502 93.8087 153.078 93.877 153.52 93.622C154.091 93.2908 154.221 92.5408 153.811 91.9464Z" fill="#DD7017"/>
<path d="M141.854 71.5013C142.197 71.9046 142.299 72.46 142.05 72.8988C141.095 74.5791 140.507 77.2407 141.351 79.4004C141.607 80.0574 141.284 80.7312 140.627 80.9047C140.227 81.0112 139.794 80.9043 139.46 80.6556C139.249 80.498 139.076 80.2832 138.976 80.0269C137.838 77.1118 138.56 73.933 139.588 71.9137" fill="#DD7017"/>
<path d="M138.976 80.0269C139.075 80.2824 139.248 80.4972 139.46 80.6556C139.794 80.9043 140.227 81.0112 140.627 80.9047C141.283 80.7304 141.606 80.0584 141.351 79.4004C140.509 77.2406 141.096 74.5782 142.05 72.8988C142.298 72.4609 142.197 71.9046 141.854 71.5013C141.124 71.6272 140.372 71.762 139.588 71.9127C138.56 73.933 137.838 77.1119 138.976 80.0269Z" fill="#DD7017"/>
<path d="M136.888 95.1044C135.092 93.3191 133.155 90.4167 133.059 87.4603C133.038 86.7833 133.591 86.2805 134.294 86.337C134.996 86.3936 135.585 86.9904 135.608 87.6683C135.68 89.8921 137.336 92.3639 138.946 93.8252C139.379 94.2173 139.498 94.7854 139.308 95.2404" fill="#DD7017"/>
<path d="M138.947 93.8259C137.336 92.3638 135.679 89.893 135.609 87.669C135.587 86.992 134.998 86.3934 134.295 86.3377C133.591 86.2795 133.038 86.7823 133.06 87.461C133.155 90.4174 135.093 93.3198 136.889 95.1052C137.71 95.1552 138.516 95.2019 139.308 95.242C139.499 94.7861 139.378 94.2173 138.947 93.8259Z" fill="#DD7017"/>
<path d="M126.037 75.0551C126.395 75.4598 126.505 76.0251 126.253 76.4704C125.652 77.5254 125.279 79.1878 125.798 80.5207C126.054 81.1777 125.731 81.8515 125.075 82.025C124.673 82.1307 124.242 82.0246 123.908 81.7759C123.696 81.6183 123.524 81.4035 123.423 81.1472C122.669 79.212 123.051 77.118 123.691 75.6826" fill="#DD7017"/>
<path d="M123.424 81.1478C123.523 81.4033 123.696 81.6181 123.908 81.7765C124.242 82.0252 124.674 82.1313 125.075 82.0256C125.73 81.8523 126.054 81.1793 125.799 80.5213C125.279 79.1876 125.652 77.527 126.253 76.471C126.507 76.0256 126.398 75.4602 126.037 75.0557C125.259 75.2599 124.478 75.4696 123.692 75.6832C123.051 77.1187 122.669 79.2126 123.424 81.1478Z" fill="#DD7017"/>
<path d="M117.834 93.3277C116.515 92.0861 115.007 89.9213 114.936 87.7044C114.915 87.0264 115.466 86.5238 116.17 86.5803C116.875 86.6366 117.462 87.2345 117.484 87.9106C117.529 89.2849 118.57 90.8248 119.582 91.7422C120.123 92.2336 120.198 93.0129 119.749 93.483C119.724 93.5098 119.687 93.5209 119.66 93.5444" fill="#DD7017"/>
<path d="M119.581 91.7432C118.569 90.8258 117.528 89.2841 117.484 87.9116C117.462 87.2345 116.876 86.6383 116.17 86.5812C115.467 86.5238 114.914 87.0266 114.936 87.7053C115.007 89.923 116.514 92.0871 117.833 93.3287C118.439 93.4032 119.049 93.4748 119.659 93.5463C119.686 93.5228 119.723 93.5117 119.747 93.4849C120.198 93.0156 120.123 92.2346 119.581 91.7432Z" fill="#DD7017"/>
</g>
<g clip-path="url(#clip2)">
<path d="M10.1645 40.4885C10.1592 40.493 10.154 40.499 10.1487 40.5035L10.1776 40.481C10.1724 40.4825 10.1684 40.4855 10.1645 40.4885C11.5737 39.3482 12.143 37.4942 11.4331 36.3389C12.1456 37.4987 13.8756 37.5153 15.2967 36.3765C16.7178 35.2361 17.2936 33.3717 16.5811 32.2118C17.2936 33.3717 19.0236 33.3882 20.4447 32.2494C21.8657 31.109 22.4402 29.2446 21.729 28.0847C22.3863 29.1559 23.9086 29.2401 25.2574 28.3521C27.2701 30.0258 29.5036 32.2959 31.954 35.3819C31.954 35.3819 42.5575 46.7054 57.5163 49.8229C58.8993 50.1114 60.2717 50.4945 61.5614 51.1345C62.1398 51.4215 63.4255 52.1892 63.4255 52.1892C72.228 57.7526 76.9277 69.629 74.1657 81.217C71.6864 91.6227 63.9224 98.7455 55.0817 99.8663C51.0249 100.38 46.943 99.369 43.249 97.3858C35.0249 92.9718 18.2532 80.23 11.3174 47.6414C11.3174 47.6414 10.271 44.6877 9.52428 40.8596C9.74382 40.768 9.9581 40.6508 10.1645 40.4885Z" fill="#583E68"/>
<path d="M10.5405 23.5084C11.2662 23.5084 11.8551 22.8368 11.8551 22.006C11.8551 21.1752 11.2662 20.5036 10.5405 20.5036C8.01384 20.5036 5.93152 19.6217 5.10595 18.2034C4.51307 17.1833 4.53016 15.7981 5.15985 14.0854C5.43986 13.3207 5.12567 12.4402 4.45522 12.1187C3.78346 11.7942 3.01574 12.1578 2.73441 12.9225C1.50132 16.2834 2.15204 18.5535 2.91583 19.8666C4.24226 22.1472 7.09231 23.5084 10.5405 23.5084Z" fill="#6A3311"/>
<path d="M25.6189 28.0983C26.9256 27.0496 27.2753 25.0424 26.3985 23.6151C25.5216 22.1863 23.7509 21.8784 22.4442 22.927C19.6388 18.3567 14.5855 18.7609 10.4024 22.1157C6.21939 25.4706 4.32899 30.6328 7.13435 35.2031C5.82763 36.2518 5.47795 38.259 6.35479 39.6863C7.23163 41.1136 8.86962 41.5282 10.1763 40.4811L10.1474 40.5036C11.5685 39.3633 12.1443 37.4988 11.4318 36.3389C12.1443 37.4988 13.8743 37.5153 15.2954 36.3765C16.7165 35.2362 17.2923 33.3717 16.5797 32.2119C17.2923 33.3717 19.0223 33.3882 20.4433 32.2494C21.8644 31.1091 22.4402 29.2446 21.7277 28.0848C22.4402 29.2446 24.1702 29.2611 25.5913 28.1223" fill="#659C35"/>
<path d="M64.7716 87.5947C65.2147 87.5947 65.6485 87.3378 65.8956 86.8751C69.0283 80.9977 69.3872 73.1762 66.8303 66.4605C66.5411 65.6988 65.7655 65.3487 65.1003 65.6807C64.4351 66.0128 64.1301 66.8977 64.4193 67.6564C66.6397 73.4902 66.3439 80.2555 63.6503 85.3096C63.273 86.0187 63.4689 86.9427 64.0881 87.3739C64.3023 87.5241 64.539 87.5947 64.7716 87.5947Z" fill="#6F58A8"/>
<path d="M63.0048 63.7562C63.3085 63.7562 63.6135 63.6361 63.8619 63.3927C64.4114 62.8503 64.4732 61.9023 63.9987 61.2743C62.3857 59.1349 60.3572 57.4597 58.1329 56.4245C57.4612 56.1135 56.6934 56.4831 56.42 57.2524C56.1466 58.0201 56.47 58.8975 57.143 59.21C58.9835 60.0633 60.6662 61.4561 62.007 63.2349C62.2687 63.579 62.6367 63.7562 63.0048 63.7562Z" fill="#6F58A8"/>
</g>
<g clip-path="url(#clip3)">
<path d="M50.302 57.914C50.053 57.914 49.803 57.821 49.61 57.635C49.212 57.253 49.199 56.619 49.582 56.221C50.62 55.141 51.172 53.931 50.989 53.139C50.871 52.63 50.413 52.227 49.627 51.94C49.108 51.751 48.842 51.176 49.031 50.657C49.22 50.138 49.796 49.874 50.314 50.061C52.133 50.726 52.745 51.857 52.937 52.688C53.279 54.166 52.563 56.004 51.023 57.608C50.826 57.811 50.565 57.914 50.302 57.914Z" fill="#659C35"/>
<path d="M39.238 65.3031C39.101 65.7701 38.966 66.2661 38.838 66.8291C35.338 82.2461 22.466 90.3791 7.95099 98.418C7.28699 98.786 7.19599 99.9211 7.84799 99.8231C17.2 98.4171 41.61 100.788 53.549 72.81C53.549 72.81 59.712 59.9541 51.837 57.8291C51.838 57.8291 40.95 52.7141 39.238 65.3031Z" fill="#D13834"/>
<path d="M55.974 67.6079C56.866 63.5729 56.834 58.7399 52.135 57.4719C52.135 57.4719 41.5 52.4849 38.945 63.7869C41.435 63.5979 44.772 63.0969 45.706 61.7579C45.706 61.7579 47.916 63.9679 46.778 67.1159C46.778 67.1159 51.466 66.5799 51.064 62.8299C51.064 62.8299 53.944 65.3079 53.207 69.2589C53.206 69.2589 54.596 68.8379 55.974 67.6079Z" fill="#88C057"/>
<path d="M21.928 95.996C21.505 95.996 21.113 95.726 20.976 95.303C20.807 94.778 21.095 94.214 21.621 94.044C43.277 87.066 45.666 72.251 45.688 72.103C45.767 71.556 46.275 71.166 46.821 71.257C47.368 71.336 47.746 71.843 47.667 72.39C47.571 73.048 45.065 88.591 22.234 95.949C22.132 95.98 22.029 95.996 21.928 95.996Z" fill="#F75B57"/>
</g>
<g clip-path="url(#clip4)">
<path d="M118.458 92.271C117.07 100.665 105.323 106.071 92.2203 104.345C79.118 102.62 69.6215 94.4175 71.0099 86.0237C71.8437 80.9814 74.4177 77.7365 81.1422 77.3743C87.6221 77.0254 96.4127 80.4941 101.646 81.1833C114.748 82.9083 119.847 83.8773 118.458 92.271Z" fill="#A46F3E"/>
<path d="M128.591 72.073C126.184 63.8647 121.067 64.7558 108.253 67.7472C103.137 68.9422 93.5264 68.8226 87.7168 71.408C84.1713 72.986 82.3942 74.9832 81.8187 77.3612C88.2235 77.2679 96.5923 80.5161 101.646 81.1822C112.772 82.6472 118.106 83.5843 118.619 88.9669C126.165 84.7618 130.381 78.1787 128.591 72.073Z" fill="#994530"/>
<path d="M81.4682 77.3162C82.0437 74.9382 83.8208 72.941 87.3663 71.363C89.2381 70.5301 91.5071 69.9792 93.8904 69.5732C90.094 66.167 85.4269 60.9336 80.6147 58.7126C74.6317 55.9516 70.5586 57.5636 66.9491 61.5142C61.6302 67.3357 63.7357 76.92 71.4072 84.2241C72.5497 80.2165 75.2552 77.6904 81.1423 77.3732C82.1987 77.3162 83.3215 77.3688 84.4751 77.4863C83.442 77.371 82.4311 77.3019 81.4682 77.3162Z" fill="#6A3311"/>
<path d="M79.9862 92.3753C79.4353 92.3753 78.9347 92.0428 78.7945 91.5446L77.5647 87.1552C77.3999 86.567 77.8008 85.9711 78.46 85.8241C79.1192 85.6781 79.787 86.0347 79.9518 86.6229L81.1816 91.0124C81.3464 91.6006 80.9455 92.1964 80.2863 92.3435C80.1854 92.3654 80.0858 92.3753 79.9862 92.3753Z" fill="#6A3311"/>
<path d="M107.042 78.1096C106.491 78.1096 105.99 77.7771 105.85 77.2789L104.62 72.8894C104.456 72.3012 104.857 71.7054 105.516 71.5583C106.176 71.4124 106.843 71.769 107.007 72.3572L108.237 76.7466C108.402 77.3348 108.001 77.9307 107.342 78.0777C107.241 78.0997 107.141 78.1096 107.042 78.1096Z" fill="#6A3311"/>
<path d="M96.6821 101.154C96.2848 101.154 95.8962 100.983 95.6589 100.667C95.2813 100.164 95.4326 99.4818 95.9971 99.1449L100.21 96.6275C100.774 96.2917 101.539 96.4256 101.916 96.9293C102.294 97.4319 102.142 98.1145 101.578 98.4513L97.3646 100.969C97.1555 101.094 96.917 101.154 96.6821 101.154Z" fill="#6A3311"/>
<path d="M75.0695 67.136C74.6722 67.136 74.2836 66.9648 74.0463 66.6487C73.6687 66.1461 73.82 65.4636 74.3845 65.1267L78.5978 62.6093C79.161 62.2724 79.9259 62.4074 80.3035 62.9111C80.681 63.4137 80.5298 64.0963 79.9653 64.4332L75.752 66.9505C75.5429 67.0756 75.3043 67.136 75.0695 67.136Z" fill="#A46F3E"/>
<path d="M100.003 89.8437C99.8955 89.8437 99.7848 89.8305 99.6766 89.8042L94.7869 88.6058C94.1314 88.4456 93.7465 87.841 93.9261 87.2572C94.1056 86.6734 94.782 86.3255 95.4375 86.489L100.327 87.6873C100.983 87.8476 101.368 88.4522 101.188 89.036C101.038 89.5232 100.542 89.8437 100.003 89.8437Z" fill="#6A3311"/>
<path d="M74.4362 75.037C74.2111 75.037 73.9848 74.9821 73.7807 74.868L69.4923 72.4538C68.9193 72.1301 68.7459 71.453 69.1086 70.9394C69.4702 70.4281 70.2327 70.2744 70.8045 70.5971L75.0929 73.0113C75.6672 73.335 75.8394 74.012 75.4766 74.5245C75.2441 74.8559 74.8444 75.037 74.4362 75.037Z" fill="#A46F3E"/>
<path d="M119.342 81.1504C119.008 81.1504 118.675 81.0297 118.431 80.7905C117.975 80.3417 118.013 79.647 118.516 79.2399L122.271 76.1991C122.774 75.792 123.551 75.826 124.008 76.2748C124.464 76.7236 124.426 77.4183 123.923 77.8254L120.169 80.8662C119.933 81.056 119.636 81.1504 119.342 81.1504Z" fill="#6A3311"/>
</g>
<path d="M50.872 126.912L45.496 143.04C45.208 143.776 44.696 144.144 43.96 144.144C43.192 144.144 42.664 143.776 42.376 143.04L37.072 126.912H40.528L43.96 138.048L47.392 126.912H50.872ZM62.9693 137.88H54.9773C54.9773 139.128 55.1693 140.04 55.5533 140.616C55.9533 141.192 56.7453 141.48 57.9293 141.48C58.6973 141.48 59.2653 141.24 59.6333 140.76C60.0013 140.264 60.1853 139.792 60.1853 139.344H62.9933C62.9933 141.056 62.5293 142.312 61.6013 143.112C60.6893 143.912 59.4733 144.312 57.9533 144.312C56.4493 144.312 55.2813 144.096 54.4493 143.664C52.7373 142.784 51.8813 140.448 51.8813 136.656C51.8813 134.4 52.3693 132.752 53.3453 131.712C54.3213 130.656 55.8093 130.128 57.8093 130.128C61.2813 130.128 63.0173 132.056 63.0173 135.912C63.0173 136.328 63.0013 136.984 62.9693 137.88ZM55.0493 135.744H60.1853C60.1853 134.688 59.9853 133.92 59.5853 133.44C59.1853 132.96 58.5693 132.72 57.7373 132.72C56.9213 132.72 56.2653 132.968 55.7693 133.464C55.2893 133.944 55.0493 134.704 55.0493 135.744ZM72.5658 130.392L75.6858 130.2V143.376C75.6858 144.896 75.2538 146.056 74.3898 146.856C73.5418 147.672 72.2778 148.08 70.5978 148.08C69.3018 148.08 68.1658 147.824 67.1898 147.312C66.6778 147.056 66.2698 146.672 65.9658 146.16C65.6618 145.648 65.5098 145.04 65.5098 144.336L68.4138 144.192C68.4138 144.64 68.5738 144.96 68.8938 145.152C69.2138 145.344 69.7578 145.44 70.5258 145.44C71.3098 145.44 71.8378 145.248 72.1098 144.864C72.3978 144.48 72.5418 143.928 72.5418 143.208L72.6618 141.144L69.3018 142.944C67.4618 142.944 66.2218 142.32 65.5818 141.072C65.0058 139.968 64.7178 138.616 64.7178 137.016C64.7178 135.112 64.8618 133.768 65.1498 132.984C65.4538 132.12 65.8858 131.496 66.4458 131.112C67.1658 130.632 68.1098 130.392 69.2778 130.392H72.5658ZM72.5658 138.432V133.2H70.1898C69.2938 133.2 68.6778 133.504 68.3418 134.112C68.0058 134.72 67.8378 135.568 67.8378 136.656C67.8378 137.744 68.0058 138.52 68.3418 138.984C68.6938 139.432 69.3098 139.656 70.1898 139.656L72.5658 138.432ZM89.4303 137.88H81.4383C81.4383 139.128 81.6303 140.04 82.0143 140.616C82.4143 141.192 83.2063 141.48 84.3903 141.48C85.1583 141.48 85.7263 141.24 86.0943 140.76C86.4623 140.264 86.6463 139.792 86.6463 139.344H89.4543C89.4543 141.056 88.9903 142.312 88.0623 143.112C87.1503 143.912 85.9343 144.312 84.4143 144.312C82.9103 144.312 81.7423 144.096 80.9103 143.664C79.1983 142.784 78.3423 140.448 78.3423 136.656C78.3423 134.4 78.8303 132.752 79.8063 131.712C80.7823 130.656 82.2703 130.128 84.2703 130.128C87.7423 130.128 89.4783 132.056 89.4783 135.912C89.4783 136.328 89.4623 136.984 89.4303 137.88ZM81.5103 135.744H86.6463C86.6463 134.688 86.4463 133.92 86.0463 133.44C85.6463 132.96 85.0303 132.72 84.1983 132.72C83.3823 132.72 82.7263 132.968 82.2303 133.464C81.7503 133.944 81.5103 134.704 81.5103 135.744ZM98.1627 144H96.2187C95.0347 144 94.1307 143.648 93.5067 142.944C92.8987 142.24 92.5947 141.4 92.5947 140.424V133.224H91.2747V130.848H92.5947V128.16H95.7147V130.848H97.9227V133.224H95.7147V140.232C95.7147 140.984 96.0747 141.36 96.7947 141.36H98.1627V144ZM110.176 144H108.088L107.128 142.344L103.792 144.144C101.936 144.144 100.688 143.472 100.048 142.128C99.7282 141.472 99.5042 140.768 99.3762 140.016C99.2642 139.248 99.2082 138.456 99.2082 137.64C99.2082 136.808 99.2162 136.2 99.2322 135.816C99.2482 135.416 99.2882 134.96 99.3522 134.448C99.4162 133.92 99.5042 133.48 99.6162 133.128C99.7442 132.776 99.9202 132.416 100.144 132.048C100.368 131.664 100.64 131.36 100.96 131.136C101.68 130.64 102.616 130.392 103.768 130.392H107.056L110.176 130.2V144ZM107.056 139.632V133.2H104.68C103.8 133.2 103.184 133.536 102.832 134.208C102.496 134.88 102.328 135.888 102.328 137.232C102.328 138.56 102.488 139.496 102.808 140.04C103.144 140.584 103.768 140.856 104.68 140.856L107.056 139.632ZM119.421 144.024L116.709 144C115.509 144 114.597 143.648 113.973 142.944C113.365 142.24 113.061 141.4 113.061 140.424V125.952H116.181V132L119.901 130.272C121.325 130.272 122.373 130.656 123.045 131.424C123.637 132.112 124.004 133.224 124.148 134.76C124.197 135.4 124.221 136.192 124.221 137.136C124.221 141.728 122.621 144.024 119.421 144.024ZM116.973 141.336H118.509C120.237 141.336 121.101 139.936 121.101 137.136C121.101 135.712 120.965 134.72 120.693 134.16C120.437 133.6 119.869 133.32 118.989 133.32L116.181 134.832V140.232C116.181 140.872 116.445 141.24 116.973 141.336ZM129.994 144L126.874 144.024V125.952H129.994V144ZM143.618 137.88H135.626C135.626 139.128 135.818 140.04 136.202 140.616C136.602 141.192 137.394 141.48 138.578 141.48C139.346 141.48 139.914 141.24 140.282 140.76C140.65 140.264 140.834 139.792 140.834 139.344H143.642C143.642 141.056 143.178 142.312 142.25 143.112C141.338 143.912 140.122 144.312 138.602 144.312C137.098 144.312 135.93 144.096 135.098 143.664C133.386 142.784 132.53 140.448 132.53 136.656C132.53 134.4 133.018 132.752 133.994 131.712C134.97 130.656 136.458 130.128 138.458 130.128C141.93 130.128 143.666 132.056 143.666 135.912C143.666 136.328 143.65 136.984 143.618 137.88ZM135.698 135.744H140.834C140.834 134.688 140.634 133.92 140.234 133.44C139.834 132.96 139.218 132.72 138.386 132.72C137.57 132.72 136.914 132.968 136.418 133.464C135.938 133.944 135.698 134.704 135.698 135.744ZM155.902 140.208V140.568C155.806 141.768 155.294 142.672 154.366 143.28C153.454 143.888 152.31 144.192 150.934 144.192C148.902 144.192 147.478 143.824 146.662 143.088C145.91 142.416 145.534 141.424 145.534 140.112V139.824H148.366C148.366 140.56 148.558 141.064 148.942 141.336C149.326 141.608 149.99 141.744 150.934 141.744C152.214 141.744 152.854 141.28 152.854 140.352C152.854 139.584 152.63 139.072 152.182 138.816C151.974 138.688 151.71 138.592 151.39 138.528L148.966 138.12C146.854 137.784 145.798 136.464 145.798 134.16C145.798 132.88 146.262 131.888 147.19 131.184C148.134 130.464 149.326 130.104 150.766 130.104C154.046 130.104 155.686 131.52 155.686 134.352V134.664H152.974C152.942 133.912 152.742 133.4 152.374 133.128C152.006 132.856 151.486 132.72 150.814 132.72C150.158 132.72 149.662 132.856 149.326 133.128C148.99 133.384 148.822 133.672 148.822 133.992C148.822 134.904 149.19 135.424 149.926 135.552L152.83 136.08C154.878 136.464 155.902 137.84 155.902 140.208Z" fill="black"/>
<defs>
<filter id="filter0_d" x="8" y="73" width="172.824" height="44" filterUnits="userSpaceOnUse" color-interpolation-filters="sRGB">
<feFlood flood-opacity="0" result="BackgroundImageFix"/>
<feColorMatrix in="SourceAlpha" type="matrix" values="0 0 0 0 0 0 0 0 0 0 0 0 0 0 0 0 0 0 127 0"/>
<feOffset dy="4"/>
<feGaussianBlur stdDeviation="2"/>
<feColorMatrix type="matrix" values="0 0 0 0 0 0 0 0 0 0 0 0 0 0 0 0 0 0 0.25 0"/>
<feBlend mode="normal" in2="BackgroundImageFix" result="effect1_dropShadow"/>
<feBlend mode="normal" in="SourceGraphic" in2="effect1_dropShadow" result="shape"/>
</filter>
<clipPath id="clip0">
<rect width="112" height="92" fill="white" transform="translate(42)"/>
</clipPath>
<clipPath id="clip1">
<rect width="74.9779" height="66.4539" fill="white" transform="translate(131.688 34.6992) rotate(36.6718)"/>
</clipPath>
<clipPath id="clip2">
<rect width="77" height="88" fill="white" transform="matrix(-1 0 0 1 77 12)"/>
</clipPath>
<clipPath id="clip3">
<rect width="49.829" height="49.829" fill="white" transform="translate(7 50)"/>
</clipPath>
<clipPath id="clip4">
<rect width="65" height="58" fill="white" transform="translate(64 52)"/>
</clipPath>
</defs>
</svg>
