<svg width="64" height="64" viewBox="0 0 64 64" fill="none" xmlns="http://www.w3.org/2000/svg">
<g clip-path="url(#clip0)">
<path d="M64 32C64 49.6733 49.6733 64 32 64C14.3267 64 0 49.6733 0 32C0 14.3267 14.3267 0 32 0C49.6733 0 64 14.3267 64 32Z" fill="#66BAED"/>
<path d="M19.291 0H59.9912C62.2051 0 64 1.79492 64 4.00879V42.394C64 44.6079 62.2051 46.4023 59.9912 46.4023H19.291C17.0767 46.4023 15.2822 44.6079 15.2822 42.394V4.00879C15.2822 1.79492 17.0767 0 19.291 0V0Z" fill="#3D4159"/>
<path d="M19.291 43.79C18.5205 43.79 17.8945 43.1641 17.8945 42.394V4.00879C17.8945 3.23877 18.521 2.6123 19.291 2.6123H59.9912C60.7612 2.6123 61.3877 3.23877 61.3877 4.00879V42.394C61.3877 43.1641 60.7612 43.79 59.9912 43.79H19.291Z" fill="#F2F0EC"/>
<path d="M22.9399 35.1523H58.9546V38.8271H22.9399V35.1523Z" fill="#713775"/>
<path d="M25.0225 5.75293H29.1875V31.9673H25.0225V5.75293Z" fill="#713775"/>
<path d="M34.2505 10.3018H38.4155V31.9673H34.2505V10.3018Z" fill="#F74F4F"/>
<path d="M43.479 5.75293H47.644V31.9673H43.479V5.75293Z" fill="#66BAED"/>
<path d="M52.707 15.5527H56.8721V31.9673H52.707V15.5527Z" fill="#3FB777"/>
<path d="M46.9658 53.3003V60.2905C45.7109 60.9565 44.4072 61.5405 43.0596 62.0356C42.1606 62.3672 41.2427 62.6597 40.3062 62.9092V53.3003H46.9658Z" fill="#DDE8ED"/>
<path d="M43.0596 53.3003V62.0356C42.1606 62.3672 41.2427 62.6597 40.3062 62.9092V53.3003H43.0596Z" fill="#BFD5DE"/>
<path d="M53.1597 51.375C53.1597 52.438 52.2974 53.3003 51.2344 53.3003H40.3062V51.375C40.3062 50.3115 41.168 49.4497 42.2314 49.4497H51.2344C51.7661 49.4497 52.248 49.665 52.5952 50.0137C52.7783 50.1968 52.9243 50.4175 53.0225 50.6616C53.1113 50.8823 53.1597 51.123 53.1597 51.375V51.375Z" fill="#EAB599"/>
<path d="M53.0225 50.6616C52.7388 51.3721 52.0454 51.874 51.2344 51.874H40.3062V51.375C40.3062 50.3115 41.168 49.4497 42.2314 49.4497H51.2344C51.7661 49.4497 52.248 49.665 52.5952 50.0137C52.7783 50.1968 52.9243 50.4175 53.0225 50.6616V50.6616Z" fill="#F6CAAE"/>
<path d="M38.3613 56.1973V59.853C35.0044 61.7573 31.2676 63.0728 27.2944 63.6562C21.9551 62.8687 17.0439 60.7632 12.9048 57.6807C10.8789 56.1724 9.0376 54.4287 7.42041 52.4902C8.88086 48.0337 12.9048 44.7373 17.7505 44.3452C18.0718 44.3193 18.396 44.3062 18.7236 44.3062H26.4678C27.3833 44.3062 28.2739 44.4082 29.1294 44.604C34.4165 45.8135 38.3613 50.5454 38.3613 56.1973Z" fill="#BFD5DE"/>
<path d="M38.3613 56.1973V63.3677C36.3052 63.7817 34.1792 64 32.0005 64C24.8428 64 18.2354 61.6504 12.9048 57.6807V56.1973C12.9048 49.6299 18.23 44.3062 24.7983 44.3062H26.4678C33.0376 44.3062 38.3613 49.6299 38.3613 56.1973Z" fill="#DDE8ED"/>
<path d="M25.7881 48.5967L22.5957 53.7168L19.4038 48.5967" fill="#F74F4F"/>
<path d="M25.4033 63.3179C23.606 62.9419 21.8638 62.4141 20.1919 61.7495L22.5962 52.3848L25.4033 63.3179Z" fill="#F74F4F"/>
<path d="M22.5952 49.1743L17.2412 52.1494L15.6128 44.5742L18.939 42.6147" fill="#BFD5DE"/>
<path d="M22.5952 49.1743L27.9487 52.1494L29.5771 44.5742L26.2505 42.6147" fill="#BFD5DE"/>
<path d="M27.4292 55.8066H33.8291V57.7656H27.4292V55.8066Z" fill="#BFD5DE"/>
<path d="M26.8413 39.7251V44.9321C26.8413 46.8384 25.5845 48.4497 23.853 48.9849C23.457 49.1074 23.0347 49.1743 22.5977 49.1743C20.2549 49.1743 18.3555 47.2749 18.3555 44.9321V39.7251H26.8413Z" fill="#EAB599"/>
<path d="M26.8413 44.6021V44.9321C26.8413 46.8384 25.5845 48.4497 23.853 48.9849C22.291 48.5044 21.1167 47.1465 20.8999 45.4844C21.1831 45.502 21.4683 45.5107 21.7544 45.5107C22.5571 45.5107 23.3442 45.4468 24.1108 45.3208C25.0552 45.1694 25.9678 44.9263 26.8413 44.6021Z" fill="#F6CAAE"/>
<path d="M10.96 31.1919C10.96 33.1558 9.5249 34.7847 7.646 35.0869C7.44092 35.1201 7.22949 35.1372 7.01416 35.1372C4.83447 35.1372 3.06836 33.3716 3.06836 31.1919C3.06836 29.0122 4.83447 27.2461 7.01416 27.2461C7.22949 27.2461 7.44092 27.2637 7.646 27.2969C9.5249 27.5991 10.96 29.2275 10.96 31.1919V31.1919Z" fill="#F6CAAE"/>
<path d="M10.96 31.1919C10.96 33.1558 9.5249 34.7847 7.646 35.0869C7.30469 33.8457 7.12256 32.5396 7.12256 31.1919C7.12256 29.8438 7.30469 28.5376 7.646 27.2969C9.5249 27.5991 10.96 29.2275 10.96 31.1919Z" fill="#EAB599"/>
<path d="M8.42432 31.1919C8.42432 31.9707 7.79297 32.6021 7.01416 32.6021C6.23535 32.6021 5.604 31.9707 5.604 31.1919C5.604 30.4131 6.23535 29.7817 7.01416 29.7817C7.79297 29.7817 8.42432 30.4131 8.42432 31.1919V31.1919Z" fill="#EAB599"/>
<path d="M34.2368 31.1919C34.2368 33.1558 35.6719 34.7847 37.5503 35.0869C37.7559 35.1201 37.9668 35.1372 38.1826 35.1372C40.3623 35.1372 42.1284 33.3716 42.1284 31.1919C42.1284 29.0122 40.3623 27.2461 38.1826 27.2461C37.9668 27.2461 37.7559 27.2637 37.5503 27.2969C35.6719 27.5991 34.2368 29.2275 34.2368 31.1919V31.1919Z" fill="#F6CAAE"/>
<path d="M34.2368 31.1919C34.2368 33.1558 35.6719 34.7847 37.5503 35.0869C37.8916 33.8457 38.0742 32.5396 38.0742 31.1919C38.0742 29.8438 37.8921 28.5376 37.5503 27.2969C35.6719 27.5991 34.2368 29.2275 34.2368 31.1919Z" fill="#EAB599"/>
<path d="M37.2788 23.5049V29.0952C37.2788 36.4004 31.9419 42.4604 24.9541 43.585C24.9307 43.5889 24.9058 43.5928 24.8823 43.5972C24.1392 43.7158 23.3765 43.7744 22.5977 43.7744C14.4907 43.7744 7.91846 37.2021 7.91846 29.0952V23.5049C7.91846 21.7979 8.20947 20.1572 8.74756 18.6328C10.7554 12.9199 16.1992 8.82422 22.5977 8.82422H22.5991C23.3765 8.82422 24.1406 8.88428 24.8848 9.00146C31.9067 10.0986 37.2788 16.1748 37.2788 23.5049V23.5049Z" fill="#EAB599"/>
<path d="M39.5928 31.1919C39.5928 31.9707 38.9614 32.6021 38.1826 32.6021C37.4038 32.6021 36.7725 31.9707 36.7725 31.1919C36.7725 30.4131 37.4038 29.7817 38.1826 29.7817C38.9614 29.7817 39.5928 30.4131 39.5928 31.1919V31.1919Z" fill="#EAB599"/>
<path d="M37.2788 23.5049V29.0952C37.2788 36.4004 31.9419 42.4604 24.9541 43.585C24.9307 43.5889 24.9058 43.5928 24.8823 43.5972C17.8604 42.5 12.4897 36.4238 12.4897 29.0952V23.5049C12.4897 16.1748 17.8618 10.0986 24.8848 9.00146C31.9067 10.0986 37.2788 16.1748 37.2788 23.5049V23.5049Z" fill="#F6CAAE"/>
<path d="M19.4722 28.2402C19.4722 29.1602 18.7266 29.9053 17.8066 29.9053C16.8872 29.9053 16.1416 29.1602 16.1416 28.2402C16.1416 27.3203 16.8872 26.5747 17.8066 26.5747C18.7266 26.5747 19.4722 27.3203 19.4722 28.2402Z" fill="#3D4159"/>
<path d="M29.0557 28.2402C29.0557 29.1602 28.3101 29.9053 27.3901 29.9053C26.4707 29.9053 25.7251 29.1602 25.7251 28.2402C25.7251 27.3203 26.4707 26.5747 27.3901 26.5747C28.3101 26.5747 29.0557 27.3203 29.0557 28.2402Z" fill="#3D4159"/>
<path d="M19.1323 27.9463C19.1323 28.3403 18.813 28.6597 18.4189 28.6597C18.0249 28.6597 17.7056 28.3403 17.7056 27.9463C17.7056 27.5522 18.0249 27.2329 18.4189 27.2329C18.813 27.2329 19.1323 27.5522 19.1323 27.9463Z" fill="white"/>
<path d="M28.7979 27.9463C28.7979 28.3403 28.4785 28.6597 28.0845 28.6597C27.6899 28.6597 27.3706 28.3403 27.3706 27.9463C27.3706 27.5522 27.6899 27.2329 28.0845 27.2329C28.4785 27.2329 28.7979 27.5522 28.7979 27.9463Z" fill="white"/>
<path d="M24.2637 31.7803H20.9331C20.5366 31.7803 20.2148 31.4585 20.2148 31.0615C20.2148 30.665 20.5366 30.3433 20.9331 30.3433H24.2637C24.6606 30.3433 24.9824 30.665 24.9824 31.0615C24.9824 31.4585 24.6606 31.7803 24.2637 31.7803Z" fill="#EAB599"/>
<path d="M22.5986 36.3251C21.3691 36.3251 20.1401 36.017 19.0195 35.4008C18.7036 35.2275 18.5879 34.83 18.7617 34.5141C18.9355 34.1982 19.3325 34.0829 19.6484 34.2563C21.4956 35.2719 23.7012 35.2719 25.5483 34.2563C25.8643 34.0824 26.2612 34.1977 26.4351 34.5141C26.6089 34.83 26.4937 35.2275 26.1772 35.4008C25.0571 36.017 23.8276 36.3251 22.5986 36.3251Z" fill="#EAB599"/>
<path d="M37.2788 18.4316V24.1577H34.5464V19.6738L14.8237 16.0088L10.6509 15.2329V24.1577H7.91846V18.4316C7.91846 11.9033 13.2095 6.6123 19.7363 6.6123H25.4609C25.6162 6.6123 25.772 6.61475 25.9272 6.62305C32.2373 6.86572 37.2788 12.0591 37.2788 18.4316Z" fill="#E8C934"/>
<path d="M37.2788 18.4316V24.1577H34.5464V19.6738L14.8237 16.0088C15.9106 10.7896 20.439 6.83447 25.9272 6.62305C32.2373 6.86572 37.2788 12.0591 37.2788 18.4316Z" fill="#FFE152"/>
</g>
<defs>
<clipPath id="clip0">
<rect width="64" height="64" fill="white"/>
</clipPath>
</defs>
</svg>
